<svg width="32" height="31" viewBox="0 0 32 31" fill="none" xmlns="http://www.w3.org/2000/svg">
<path d="M16.201 0.241119C7.764 0.241119 0.901001 7.10412 0.901001 15.5411C0.901001 23.9781 7.764 30.8411 16.201 30.8411C24.638 30.8411 31.501 23.9781 31.501 15.5411C31.501 7.10412 24.638 0.241119 16.201 0.241119V0.241119ZM16.201 28.2411C12.18 28.2411 8.596 26.3571 6.268 23.4311C7.88961 21.3093 10.1517 19.7664 12.719 19.0311C11.7946 18.4439 11.0334 17.6329 10.5058 16.6732C9.97824 15.7136 9.70143 14.6362 9.701 13.5411C9.701 9.95712 12.617 7.04112 16.201 7.04112C19.785 7.04112 22.701 9.95712 22.701 13.5411C22.7001 14.6364 22.423 15.7138 21.8953 16.6735C21.3676 17.6333 20.6063 18.4445 19.682 19.0321C22.2498 19.7669 24.5124 21.3099 26.134 23.4321C23.806 26.3571 20.222 28.2411 16.201 28.2411Z" fill="#717171"/>
</svg>
