<svg width="51" height="50" viewBox="0 0 51 50" fill="none" xmlns="http://www.w3.org/2000/svg">
<path d="M41.7396 10C43.6339 10 45.4507 9.47322 46.7902 8.53553C48.1298 7.59785 48.8823 6.32608 48.8823 5C48.8823 3.67392 48.1298 2.40215 46.7902 1.46447C45.4507 0.526784 43.6339 0 41.7396 0C39.8452 0 38.0284 0.526784 36.6889 1.46447C35.3493 2.40215 34.5968 3.67392 34.5968 5C34.5968 6.32608 35.3493 7.59785 36.6889 8.53553C38.0284 9.47322 39.8452 10 41.7396 10ZM3.2937 7.0775C3.08664 7.00035 2.85989 6.9525 2.62642 6.93669C2.39294 6.92088 2.1573 6.93742 1.93295 6.98536C1.47985 7.08217 1.10026 7.30102 0.877667 7.59375C0.655077 7.88648 0.607728 8.22912 0.746034 8.54629C0.88434 8.86347 1.19697 9.12919 1.61516 9.285L8.24899 11.7525L5.2651 12.6275C4.95547 12.7182 4.68863 12.8682 4.4952 13.0602C4.30177 13.2523 4.18958 13.4786 4.1715 13.7132C4.15342 13.9479 4.23018 14.1813 4.39297 14.3868C4.55576 14.5923 4.798 14.7615 5.09189 14.875L13.9078 18.28C14.3207 18.4273 14.7992 18.4565 15.2422 18.3614C15.6853 18.2663 16.0582 18.0544 16.2821 17.7704C16.5061 17.4864 16.5635 17.1526 16.4424 16.8395C16.3212 16.5264 16.0309 16.2585 15.6328 16.0925L10.0507 13.935L13.1043 13.04C13.4159 12.9485 13.684 12.7971 13.8775 12.6032C14.071 12.4093 14.182 12.1809 14.1975 11.9447C14.213 11.7084 14.1325 11.4739 13.9652 11.2684C13.7979 11.0629 13.5508 10.8949 13.2525 10.7837L3.29192 7.0775H3.2937ZM20.6309 17.1075C23.4309 13.8988 28.0362 11.3663 34.5968 11.3663C35.3917 11.3663 36.1639 11.5519 36.791 11.8938C37.4182 12.2357 37.8645 12.7143 38.0592 13.2537L41.1842 21.9012L48.4234 23.9287C49.3028 24.1751 50.0065 24.6559 50.3796 25.2654C50.7526 25.8748 50.7645 26.5631 50.4126 27.1787C50.0608 27.7944 49.3739 28.287 48.5032 28.5481C47.6325 28.8092 46.6493 28.8176 45.7699 28.5713L36.8414 26.0713C36.3182 25.9248 35.852 25.6937 35.4808 25.3969C35.1096 25.1002 34.8441 24.7461 34.7057 24.3637L33.3558 20.6238C32.9269 21.3526 32.5297 22.0905 32.1647 22.8362C30.5683 26.0937 29.3719 29.895 29.238 33.6712L29.2397 33.75V47.5C29.2397 48.163 28.8635 48.7989 28.1937 49.2678C27.5239 49.7366 26.6156 50 25.6684 50C24.7212 50 23.8128 49.7366 23.143 49.2678C22.4733 48.7989 22.097 48.163 22.097 47.5V35.2738L22.0041 35.19C21.3051 34.5639 20.6398 33.9197 20.0095 33.2588C19.2845 32.4963 18.5095 31.5962 17.9024 30.6737C17.3292 29.8037 16.7399 28.6675 16.7399 27.5C16.7399 24.125 17.9006 20.2375 20.6309 17.1075Z" fill="#1D5A74"/>
<path d="M22.6681 26.833C22.6681 26.0373 22.9842 25.2743 23.5468 24.7117C24.1094 24.1491 24.8725 23.833 25.6681 23.833C26.4638 23.833 27.2268 24.1491 27.7894 24.7117C28.352 25.2743 28.6681 26.0373 28.6681 26.833V39C28.6681 39.2652 28.5627 39.5196 28.3752 39.7071C28.1877 39.8946 27.9333 40 27.6681 40C27.4029 40 27.1485 39.8946 26.961 39.7071C26.7735 39.5196 26.6681 39.2652 26.6681 39V26.833C26.6681 26.5678 26.5627 26.3134 26.3752 26.1259C26.1877 25.9383 25.9333 25.833 25.6681 25.833C25.4029 25.833 25.1485 25.9383 24.961 26.1259C24.7735 26.3134 24.6681 26.5678 24.6681 26.833V27.056C24.6681 27.3212 24.5627 27.5756 24.3752 27.7631C24.1877 27.9506 23.9333 28.056 23.6681 28.056C23.4029 28.056 23.1485 27.9506 22.961 27.7631C22.7735 27.5756 22.6681 27.3212 22.6681 27.056V26.833ZM0.500101 15.978C0.610101 15.418 1.1231 15.051 1.6451 15.159L5.3111 15.919C5.48761 15.9584 5.64956 16.0464 5.77858 16.1732C5.90761 16.2999 5.99855 16.4602 6.0411 16.636C6.1371 17.004 6.0341 17.403 5.7721 17.672L4.9751 18.492L6.9131 18.995C7.4281 19.13 7.7371 19.688 7.6021 20.243C7.4671 20.798 6.9391 21.139 6.4231 21.005L2.7981 20.061C2.62767 20.0134 2.47341 19.9203 2.35186 19.7917C2.23031 19.6631 2.14604 19.5038 2.1081 19.331C2.0211 18.968 2.1261 18.581 2.3811 18.318L3.1051 17.574L1.2431 17.189C0.722101 17.081 0.389101 16.538 0.500101 15.978Z" fill="#1D5A74"/>
</svg>
