<svg width="94" height="24" viewBox="0 0 94 24" fill="none" xmlns="http://www.w3.org/2000/svg">
<rect width="24" height="24" transform="translate(70)" fill="white"/>
<path d="M89.6498 9.04L84.8098 8.62L82.9198 4.17C82.5798 3.36 81.4198 3.36 81.0798 4.17L79.1898 8.63L74.3598 9.04C73.4798 9.11 73.1198 10.21 73.7898 10.79L77.4598 13.97L76.3598 18.69C76.1598 19.55 77.0898 20.23 77.8498 19.77L81.9998 17.27L86.1498 19.78C86.9098 20.24 87.8398 19.56 87.6398 18.7L86.5398 13.97L90.2098 10.79C90.8798 10.21 90.5298 9.11 89.6498 9.04ZM81.9998 15.4L78.2398 17.67L79.2398 13.39L75.9198 10.51L80.2998 10.13L81.9998 6.1L83.7098 10.14L88.0898 10.52L84.7698 13.4L85.7698 17.68L81.9998 15.4Z" fill="black"/>
<path d="M14.4302 10L12.9602 5.16001C12.6702 4.21001 11.3302 4.21001 11.0502 5.16001L9.5702 10H5.1202C4.1502 10 3.7502 11.25 4.5402 11.81L8.1802 14.41L6.7502 19.02C6.4602 19.95 7.5402 20.7 8.3102 20.11L12.0002 17.31L15.6902 20.12C16.4602 20.71 17.5402 19.96 17.2502 19.03L15.8202 14.42L19.4602 11.82C20.2502 11.25 19.8502 10.01 18.8802 10.01H14.4302V10Z" fill="black"/>
<path d="M32.4302 10L30.9602 5.16001C30.6702 4.21001 29.3302 4.21001 29.0502 5.16001L27.5702 10H23.1202C22.1502 10 21.7502 11.25 22.5402 11.81L26.1802 14.41L24.7502 19.02C24.4602 19.95 25.5402 20.7 26.3102 20.11L30.0002 17.31L33.6902 20.12C34.4602 20.71 35.5402 19.96 35.2502 19.03L33.8202 14.42L37.4602 11.82C38.2502 11.25 37.8502 10.01 36.8802 10.01H32.4302V10Z" fill="black"/>
<path d="M49.4302 10L47.9602 5.16001C47.6702 4.21001 46.3302 4.21001 46.0502 5.16001L44.5702 10H40.1202C39.1502 10 38.7502 11.25 39.5402 11.81L43.1802 14.41L41.7502 19.02C41.4602 19.95 42.5402 20.7 43.3102 20.11L47.0002 17.31L50.6902 20.12C51.4602 20.71 52.5402 19.96 52.2502 19.03L50.8202 14.42L54.4602 11.82C55.2502 11.25 54.8502 10.01 53.8802 10.01H49.4302V10Z" fill="black"/>
<path d="M66.4302 10L64.9602 5.16001C64.6702 4.21001 63.3302 4.21001 63.0502 5.16001L61.5702 10H57.1202C56.1502 10 55.7502 11.25 56.5402 11.81L60.1802 14.41L58.7502 19.02C58.4602 19.95 59.5402 20.7 60.3102 20.11L64.0002 17.31L67.6902 20.12C68.4602 20.71 69.5402 19.96 69.2502 19.03L67.8202 14.42L71.4602 11.82C72.2502 11.25 71.8502 10.01 70.8802 10.01H66.4302V10Z" fill="black"/>
</svg>
