<svg width="41" height="103" viewBox="0 0 41 103" fill="none" xmlns="http://www.w3.org/2000/svg">
<g opacity="0.5">
<rect width="41" height="103" fill="#211572"/>
<path d="M29 12H13C11.9 12 11 12.9 11 14V32L15 28H29C30.1 28 31 27.1 31 26V14C31 12.9 30.1 12 29 12ZM29 26H15L13 28V14H29V26Z" fill="white"/>
<path d="M15.5 48.75C15.5 48.1533 15.7371 47.581 16.159 47.159C16.581 46.7371 17.1533 46.5 17.75 46.5C18.3467 46.5 18.919 46.7371 19.341 47.159C19.7629 47.581 20 48.1533 20 48.75C20 49.3467 19.7629 49.919 19.341 50.341C18.919 50.7629 18.3467 51 17.75 51C17.1533 51 16.581 50.7629 16.159 50.341C15.7371 49.919 15.5 49.3467 15.5 48.75ZM17.75 45.5C16.888 45.5 16.0614 45.8424 15.4519 46.4519C14.8424 47.0614 14.5 47.888 14.5 48.75C14.5 49.612 14.8424 50.4386 15.4519 51.0481C16.0614 51.6576 16.888 52 17.75 52C18.612 52 19.4386 51.6576 20.0481 51.0481C20.6576 50.4386 21 49.612 21 48.75C21 47.888 20.6576 47.0614 20.0481 46.4519C19.4386 45.8424 18.612 45.5 17.75 45.5ZM23.437 57.145C23.975 57.365 24.652 57.5 25.5 57.5C27.381 57.5 28.421 56.832 28.969 56.066C29.2549 55.664 29.4342 55.1961 29.49 54.706C29.495 54.6605 29.4983 54.6148 29.5 54.569V54.5C29.5 54.303 29.4612 54.108 29.3858 53.926C29.3104 53.744 29.1999 53.5786 29.0607 53.4393C28.9214 53.3001 28.756 53.1896 28.574 53.1142C28.392 53.0388 28.197 53 28 53H23.37C23.61 53.29 23.79 53.629 23.895 54H28C28.1326 54 28.2598 54.0527 28.3536 54.1464C28.4473 54.2402 28.5 54.3674 28.5 54.5V54.554L28.495 54.604C28.4567 54.9211 28.3398 55.2235 28.155 55.484C27.828 55.943 27.118 56.5 25.5 56.5C24.768 56.5 24.222 56.386 23.813 56.219C23.731 56.499 23.612 56.815 23.437 57.145ZM12.5 55C12.5 54.4696 12.7107 53.9609 13.0858 53.5858C13.4609 53.2107 13.9696 53 14.5 53H21C21.5304 53 22.0391 53.2107 22.4142 53.5858C22.7893 53.9609 23 54.4696 23 55V55.084C23 55.094 23 55.107 22.998 55.124C22.9858 55.322 22.9574 55.5187 22.913 55.712C22.828 56.08 22.659 56.572 22.318 57.066C21.617 58.08 20.263 59 17.75 59C15.237 59 13.883 58.08 13.182 57.066C12.8128 56.5283 12.5826 55.9074 12.512 55.259C12.506 55.2008 12.502 55.1425 12.5 55.084V55ZM13.5 55.06V55.078L13.507 55.161C13.5612 55.6404 13.7322 56.0991 14.005 56.497C14.492 57.201 15.513 58 17.75 58C19.987 58 21.008 57.201 21.495 56.497C21.7679 56.0992 21.9389 55.6404 21.993 55.161C21.9963 55.1334 21.9983 55.1057 21.999 55.078L22 55.061V55C22 54.7348 21.8946 54.4804 21.7071 54.2929C21.5196 54.1054 21.2652 54 21 54H14.5C14.2348 54 13.9804 54.1054 13.7929 54.2929C13.6054 54.4804 13.5 54.7348 13.5 55V55.06ZM24 49.5C24 49.1022 24.158 48.7206 24.4393 48.4393C24.7206 48.158 25.1022 48 25.5 48C25.8978 48 26.2794 48.158 26.5607 48.4393C26.842 48.7206 27 49.1022 27 49.5C27 49.8978 26.842 50.2794 26.5607 50.5607C26.2794 50.842 25.8978 51 25.5 51C25.1022 51 24.7206 50.842 24.4393 50.5607C24.158 50.2794 24 49.8978 24 49.5ZM25.5 47C24.837 47 24.2011 47.2634 23.7322 47.7322C23.2634 48.2011 23 48.837 23 49.5C23 50.163 23.2634 50.7989 23.7322 51.2678C24.2011 51.7366 24.837 52 25.5 52C26.163 52 26.7989 51.7366 27.2678 51.2678C27.7366 50.7989 28 50.163 28 49.5C28 48.837 27.7366 48.2011 27.2678 47.7322C26.7989 47.2634 26.163 47 25.5 47Z" fill="white"/>
<path d="M15 75.5C15 75.3674 15.0527 75.2402 15.1464 75.1464C15.2402 75.0527 15.3674 75 15.5 75H26.5C26.6326 75 26.7598 75.0527 26.8536 75.1464C26.9473 75.2402 27 75.3674 27 75.5V78.498C27 78.6306 26.9473 78.7578 26.8536 78.8516C26.7598 78.9453 26.6326 78.998 26.5 78.998H15.5C15.3674 78.998 15.2402 78.9453 15.1464 78.8516C15.0527 78.7578 15 78.6306 15 78.498V75.5ZM16 76V77.998H26V76H16ZM22.498 80C22.3654 80 22.2382 80.0527 22.1444 80.1464C22.0507 80.2402 21.998 80.3674 21.998 80.5V84.5C21.998 84.6326 22.0507 84.7598 22.1444 84.8536C22.2382 84.9473 22.3654 85 22.498 85H26.498C26.6306 85 26.7578 84.9473 26.8516 84.8536C26.9453 84.7598 26.998 84.6326 26.998 84.5V80.5C26.998 80.3674 26.9453 80.2402 26.8516 80.1464C26.7578 80.0527 26.6306 80 26.498 80H22.498ZM22.998 84V81H25.998V84H22.998ZM15 81C15 80.8674 15.0527 80.7402 15.1464 80.6464C15.2402 80.5527 15.3674 80.5 15.5 80.5H20.504C20.6366 80.5 20.7638 80.5527 20.8576 80.6464C20.9513 80.7402 21.004 80.8674 21.004 81C21.004 81.1326 20.9513 81.2598 20.8576 81.3536C20.7638 81.4473 20.6366 81.5 20.504 81.5H15.5C15.3674 81.5 15.2402 81.4473 15.1464 81.3536C15.0527 81.2598 15 81.1326 15 81ZM15.5 83.5C15.3674 83.5 15.2402 83.5527 15.1464 83.6464C15.0527 83.7402 15 83.8674 15 84C15 84.1326 15.0527 84.2598 15.1464 84.3536C15.2402 84.4473 15.3674 84.5 15.5 84.5H20.503C20.6356 84.5 20.7628 84.4473 20.8566 84.3536C20.9503 84.2598 21.003 84.1326 21.003 84C21.003 83.8674 20.9503 83.7402 20.8566 83.6464C20.7628 83.5527 20.6356 83.5 20.503 83.5H15.5ZM13 75.5C13 74.837 13.2634 74.2011 13.7322 73.7322C14.2011 73.2634 14.837 73 15.5 73H26.5C27.163 73 27.7989 73.2634 28.2678 73.7322C28.7366 74.2011 29 74.837 29 75.5V84.5C29 85.163 28.7366 85.7989 28.2678 86.2678C27.7989 86.7366 27.163 87 26.5 87H15.5C14.837 87 14.2011 86.7366 13.7322 86.2678C13.2634 85.7989 13 85.163 13 84.5V75.5ZM15.5 74C15.1022 74 14.7206 74.158 14.4393 74.4393C14.158 74.7206 14 75.1022 14 75.5V84.5C14 84.8978 14.158 85.2794 14.4393 85.5607C14.7206 85.842 15.1022 86 15.5 86H26.5C26.8978 86 27.2794 85.842 27.5607 85.5607C27.842 85.2794 28 84.8978 28 84.5V75.5C28 75.1022 27.842 74.7206 27.5607 74.4393C27.2794 74.158 26.8978 74 26.5 74H15.5Z" fill="white"/>
</g>
</svg>
