<svg width="26" height="26" viewBox="0 0 26 26" fill="none" xmlns="http://www.w3.org/2000/svg">
<path d="M7.625 18.375C7.85417 18.6042 8.1458 18.7188 8.5 18.7188C8.8542 18.7188 9.1458 18.6042 9.375 18.375L13 14.75L16.6562 18.4062C16.8854 18.6354 17.1721 18.745 17.5163 18.735C17.8604 18.725 18.1467 18.605 18.375 18.375C18.6042 18.1458 18.7188 17.8542 18.7188 17.5C18.7188 17.1458 18.6042 16.8542 18.375 16.625L14.75 13L18.4062 9.3438C18.6354 9.1146 18.745 8.8279 18.735 8.4838C18.725 8.1396 18.605 7.85333 18.375 7.625C18.1458 7.39583 17.8542 7.28125 17.5 7.28125C17.1458 7.28125 16.8542 7.39583 16.625 7.625L13 11.25L9.3438 7.59375C9.1146 7.36458 8.8283 7.25542 8.485 7.26625C8.1417 7.27708 7.855 7.39667 7.625 7.625C7.39583 7.85417 7.28125 8.1458 7.28125 8.5C7.28125 8.8542 7.39583 9.1458 7.625 9.375L11.25 13L7.59375 16.6562C7.36458 16.8854 7.25542 17.1721 7.26625 17.5163C7.27708 17.8604 7.39667 18.1467 7.625 18.375ZM13 25.5C11.2708 25.5 9.6458 25.1717 8.125 24.515C6.60417 23.8583 5.28125 22.9679 4.15625 21.8438C3.03125 20.7188 2.14083 19.3958 1.485 17.875C0.82917 16.3542 0.50083 14.7292 0.5 13C0.5 11.2708 0.82833 9.6458 1.485 8.125C2.14167 6.60417 3.03208 5.28125 4.15625 4.15625C5.28125 3.03125 6.60417 2.14083 8.125 1.485C9.6458 0.82917 11.2708 0.50083 13 0.5C14.7292 0.5 16.3542 0.82833 17.875 1.485C19.3958 2.14167 20.7188 3.03208 21.8438 4.15625C22.9688 5.28125 23.8596 6.60417 24.5162 8.125C25.1729 9.6458 25.5008 11.2708 25.5 13C25.5 14.7292 25.1717 16.3542 24.515 17.875C23.8583 19.3958 22.9679 20.7188 21.8438 21.8438C20.7188 22.9688 19.3958 23.8596 17.875 24.5162C16.3542 25.1729 14.7292 25.5008 13 25.5Z" fill="#E43334"/>
</svg>
