<svg width="60" height="60" viewBox="0 0 60 60" fill="none" xmlns="http://www.w3.org/2000/svg">
<path d="M53.4329 41.7002C52.1391 44.5736 51.5157 45.858 49.8516 48.3939C47.5219 51.9377 44.236 56.3627 40.1766 56.3908C36.5625 56.4236 35.6297 54.033 30.7219 54.0752C25.8188 54.0986 24.7969 56.4377 21.1782 56.4002C17.1141 56.3627 14.0063 52.3783 11.6766 48.8393C5.16099 38.9158 4.47193 27.2814 8.49849 21.0939C11.3485 16.7064 15.8532 14.1283 20.086 14.1283C24.3985 14.1283 27.1079 16.4955 30.6704 16.4955C34.1297 16.4955 36.2344 14.1236 41.2219 14.1236C44.9907 14.1236 48.975 16.1768 51.825 19.7205C42.5063 24.8299 44.0204 38.1377 53.4329 41.7002ZM37.4344 10.1627C39.2485 7.83301 40.6266 4.54707 40.125 1.2002C37.1672 1.40176 33.7079 3.29082 31.6875 5.7377C29.8547 7.96894 28.336 11.2783 28.9266 14.4799C32.1563 14.583 35.4985 12.6564 37.4344 10.1627Z" fill="black"/>
</svg>
