<svg width="50" height="50" viewBox="0 0 50 50" fill="none" xmlns="http://www.w3.org/2000/svg">
<path fill-rule="evenodd" clip-rule="evenodd" d="M16.8812 6.5022C16.7291 6.47229 16.5722 6.47635 16.4218 6.5141C16.2714 6.55184 16.1311 6.62234 16.0111 6.72056C15.8911 6.81878 15.7943 6.94229 15.7275 7.08227C15.6608 7.22225 15.6258 7.37525 15.625 7.53032V8.21574C15.625 8.49201 15.5153 8.75696 15.3199 8.95231C15.1246 9.14766 14.8596 9.25741 14.5833 9.25741H13.5417C13.2654 9.25741 13.0004 9.36715 12.8051 9.5625C12.6097 9.75786 12.5 10.0228 12.5 10.2991V12.2241C12.5 12.5003 12.6097 12.7653 12.8051 12.9606C13.0004 13.156 13.2654 13.2657 13.5417 13.2657H14.5833C14.8596 13.2657 15.1246 13.3755 15.3199 13.5708C15.5153 13.7662 15.625 14.0311 15.625 14.3074V15.4637C15.625 15.9397 15.9479 16.3564 16.4104 16.4699C23.1458 18.1199 27.1625 18.1209 33.6 16.4751C33.8221 16.4178 34.0188 16.2882 34.1591 16.1068C34.2994 15.9253 34.3753 15.7024 34.375 15.473V14.3074C34.375 14.0311 34.4847 13.7662 34.6801 13.5708C34.8754 13.3755 35.1404 13.2657 35.4167 13.2657H36.4583C36.7346 13.2657 36.9996 13.156 37.1949 12.9606C37.3903 12.7653 37.5 12.5003 37.5 12.2241V10.2991C37.5 10.0228 37.3903 9.75786 37.1949 9.5625C36.9996 9.36715 36.7346 9.25741 36.4583 9.25741H35.4167C35.1404 9.25741 34.8754 9.14766 34.6801 8.95231C34.4847 8.75696 34.375 8.49201 34.375 8.21574V7.53345C34.375 6.87199 33.7656 6.37928 33.1167 6.50532C26.9667 7.70324 23.0292 7.68762 16.8812 6.5022V6.5022ZM19.7917 10.4168C19.7917 10.1405 19.6819 9.87556 19.4866 9.68021C19.2912 9.48486 19.0263 9.37512 18.75 9.37512C18.4737 9.37512 18.2088 9.48486 18.0134 9.68021C17.8181 9.87556 17.7083 10.1405 17.7083 10.4168V13.5418C17.7083 13.818 17.8181 14.083 18.0134 14.2784C18.2088 14.4737 18.4737 14.5834 18.75 14.5834C19.0263 14.5834 19.2912 14.4737 19.4866 14.2784C19.6819 14.083 19.7917 13.818 19.7917 13.5418V10.4168ZM16.8812 19.0022C16.7291 18.9723 16.5722 18.9763 16.4218 19.0141C16.2714 19.0518 16.1311 19.1223 16.0111 19.2206C15.8911 19.3188 15.7943 19.4423 15.7275 19.5823C15.6608 19.7223 15.6258 19.8752 15.625 20.0303V20.7157C15.625 20.992 15.5153 21.257 15.3199 21.4523C15.1246 21.6477 14.8596 21.7574 14.5833 21.7574H13.5417C13.2654 21.7574 13.0004 21.8672 12.8051 22.0625C12.6097 22.2579 12.5 22.5228 12.5 22.7991V24.7241C12.5 25.0003 12.6097 25.2653 12.8051 25.4606C13.0004 25.656 13.2654 25.7657 13.5417 25.7657H14.5833C14.8596 25.7657 15.1246 25.8755 15.3199 26.0708C15.5153 26.2662 15.625 26.5311 15.625 26.8074V27.9637C15.625 28.4397 15.9479 28.8564 16.4104 28.9699C23.1458 30.6199 27.1625 30.6209 33.6 28.9762C33.8222 28.9188 34.0191 28.789 34.1594 28.6074C34.2997 28.4258 34.3756 28.2026 34.375 27.973V26.8074C34.375 26.5311 34.4847 26.2662 34.6801 26.0708C34.8754 25.8755 35.1404 25.7657 35.4167 25.7657H36.4583C36.7346 25.7657 36.9996 25.656 37.1949 25.4606C37.3903 25.2653 37.5 25.0003 37.5 24.7241V22.7991C37.5 22.5228 37.3903 22.2579 37.1949 22.0625C36.9996 21.8672 36.7346 21.7574 36.4583 21.7574H35.4167C35.1404 21.7574 34.8754 21.6477 34.6801 21.4523C34.4847 21.257 34.375 20.992 34.375 20.7157V20.0334C34.375 19.372 33.7656 18.8793 33.1167 19.0053C26.9667 20.2032 23.0292 20.1876 16.8812 19.0022V19.0022ZM19.7917 22.9168C19.7917 22.6405 19.6819 22.3756 19.4866 22.1802C19.2912 21.9849 19.0263 21.8751 18.75 21.8751C18.4737 21.8751 18.2088 21.9849 18.0134 22.1802C17.8181 22.3756 17.7083 22.6405 17.7083 22.9168V26.0418C17.7083 26.318 17.8181 26.583 18.0134 26.7784C18.2088 26.9737 18.4737 27.0834 18.75 27.0834C19.0263 27.0834 19.2912 26.9737 19.4866 26.7784C19.6819 26.583 19.7917 26.318 19.7917 26.0418V22.9168ZM16.8812 31.5022C16.7291 31.4723 16.5722 31.4763 16.4218 31.5141C16.2714 31.5518 16.1311 31.6223 16.0111 31.7206C15.8911 31.8188 15.7943 31.9423 15.7275 32.0823C15.6608 32.2223 15.6258 32.3752 15.625 32.5303V33.2157C15.625 33.492 15.5153 33.757 15.3199 33.9523C15.1246 34.1477 14.8596 34.2574 14.5833 34.2574H13.5417C13.2654 34.2574 13.0004 34.3672 12.8051 34.5625C12.6097 34.7579 12.5 35.0228 12.5 35.2991V37.2241C12.5 37.5003 12.6097 37.7653 12.8051 37.9606C13.0004 38.156 13.2654 38.2657 13.5417 38.2657H14.5833C14.8596 38.2657 15.1246 38.3755 15.3199 38.5708C15.5153 38.7662 15.625 39.0311 15.625 39.3074V40.4637C15.625 40.9397 15.9479 41.3564 16.4104 41.4699C23.1458 43.1199 27.1625 43.1209 33.6 41.4751C33.8221 41.4178 34.0188 41.2882 34.1591 41.1068C34.2994 40.9253 34.3753 40.7024 34.375 40.473V39.3074C34.375 39.0311 34.4847 38.7662 34.6801 38.5708C34.8754 38.3755 35.1404 38.2657 35.4167 38.2657H36.4583C36.7346 38.2657 36.9996 38.156 37.1949 37.9606C37.3903 37.7653 37.5 37.5003 37.5 37.2241V35.2991C37.5 35.0228 37.3903 34.7579 37.1949 34.5625C36.9996 34.3672 36.7346 34.2574 36.4583 34.2574H35.4167C35.1404 34.2574 34.8754 34.1477 34.6801 33.9523C34.4847 33.757 34.375 33.492 34.375 33.2157V32.5334C34.375 31.872 33.7656 31.3793 33.1167 31.5053C26.9667 32.7032 23.0292 32.6876 16.8812 31.5022V31.5022ZM19.7917 35.4168C19.7917 35.1405 19.6819 34.8756 19.4866 34.6802C19.2912 34.4849 19.0263 34.3751 18.75 34.3751C18.4737 34.3751 18.2088 34.4849 18.0134 34.6802C17.8181 34.8756 17.7083 35.1405 17.7083 35.4168V38.5418C17.7083 38.818 17.8181 39.083 18.0134 39.2784C18.2088 39.4737 18.4737 39.5834 18.75 39.5834C19.0263 39.5834 19.2912 39.4737 19.4866 39.2784C19.6819 39.083 19.7917 38.818 19.7917 38.5418V35.4168Z" fill="#1D5A74"/>
</svg>
