<svg width="50" height="50" viewBox="0 0 50 50" fill="none" xmlns="http://www.w3.org/2000/svg">
<path d="M24.1399 39.3376C23.8823 39.0803 23.533 38.9357 23.1688 38.9357C22.8047 38.9357 22.4554 39.0803 22.1978 39.3376L15.7306 45.8001L14.9259 44.9954L23.5978 36.3353C23.8555 36.0777 24.0004 35.7283 24.0005 35.3639C24.0007 34.9996 23.8561 34.6501 23.5985 34.3923C23.341 34.1345 22.9916 33.9897 22.6272 33.9895C22.2628 33.9894 21.9133 34.134 21.6556 34.3915L12.986 43.0532L12.1829 42.2501L22.2688 32.1728C22.5094 31.9121 22.6398 31.5685 22.6329 31.2139C22.626 30.8593 22.4822 30.5211 22.2317 30.27C21.9811 30.019 21.6432 29.8745 21.2886 29.8669C20.934 29.8592 20.5901 29.989 20.329 30.229L10.2415 40.3056L9.43838 39.5009L17.354 31.5915C17.5943 31.3307 17.7245 30.987 17.7173 30.6324C17.7101 30.2778 17.566 29.9397 17.3153 29.6888C17.0645 29.438 16.7265 29.2938 16.3719 29.2864C16.0173 29.2791 15.6735 29.4091 15.4126 29.6493L5.229 39.8134C5.21984 38.3624 5.21489 36.9113 5.21416 35.4603C5.21416 33.24 2.40869 32.9111 2.26885 33.0657C2.13213 33.2267 0.73291 48.6454 0.73291 48.6454H16.7892L17.6837 47.7509L17.672 47.7407L24.1415 41.2767C24.3991 41.0192 24.5439 40.67 24.5441 40.3057C24.5442 39.9415 24.3997 39.5922 24.1423 39.3345L24.1399 39.3376Z" fill="#1D5A74"/>
<path d="M31.3642 1.5335C23.2454 1.5335 15.765 7.62412 14.2056 14.3312C13.8564 15.8265 13.4657 19.7202 13.4657 19.7202L9.73528 29.1218C9.64259 29.341 9.60568 29.5798 9.62784 29.8168C9.64999 30.0538 9.73053 30.2816 9.86224 30.4799C9.99395 30.6781 10.1727 30.8407 10.3826 30.953C10.5925 31.0653 10.8269 31.1238 11.065 31.1233H12.3384L14.6126 28.8507C14.9324 28.5304 15.3331 28.303 15.772 28.1926C16.2109 28.0822 16.6715 28.0931 17.1047 28.224C17.5379 28.3548 17.9275 28.6009 18.2319 28.9358C18.5362 29.2707 18.744 29.682 18.8329 30.1257L19.529 29.4304C19.9953 28.9771 20.6199 28.7233 21.2702 28.723C21.9205 28.7226 22.5454 28.9757 23.0122 29.4285C23.479 29.8812 23.751 30.4981 23.7705 31.1481C23.7899 31.7981 23.5554 32.4301 23.1165 32.9101C23.5604 32.9991 23.9718 33.207 24.307 33.5114C24.6421 33.8158 24.8884 34.2054 25.0196 34.6387C25.1508 35.072 25.1621 35.5328 25.0522 35.972C24.9423 36.4111 24.7153 36.8123 24.3954 37.1327L23.6689 37.8577C24.1345 37.9522 24.5782 38.178 24.9384 38.5382C25.4078 39.0077 25.6716 39.6445 25.6716 40.3085C25.6716 40.9725 25.4078 41.6093 24.9384 42.0788L23.3251 43.6897V48.6468H42.4243V33.4694C46.5822 30.1999 49.2611 25.1171 49.2611 19.4147C49.2611 9.53662 41.2525 1.53271 31.3642 1.53271V1.5335ZM17.8728 23.2913C17.6106 23.2916 17.351 23.2402 17.1088 23.1401C16.8665 23.04 16.6463 22.8932 16.4608 22.708C16.086 22.3341 15.8752 21.8266 15.8747 21.2972C15.8742 20.7678 16.084 20.2599 16.458 19.8851C16.832 19.5104 17.3395 19.2996 17.8689 19.2991C18.3983 19.2986 18.9062 19.5084 19.2809 19.8824C19.6556 20.2564 19.8664 20.7639 19.8669 21.2933C19.8674 21.8227 19.6576 22.3306 19.2837 22.7053C18.9097 23.08 18.4022 23.2908 17.8728 23.2913ZM27.2134 27.9421C27.7118 27.9421 28.1243 28.3507 28.1243 28.8476C28.1243 29.3507 27.7118 29.7562 27.2134 29.7562C27.0911 29.7612 26.9691 29.7415 26.8546 29.6982C26.7401 29.6549 26.6356 29.5889 26.5473 29.5042C26.459 29.4195 26.3887 29.3178 26.3407 29.2052C26.2927 29.0926 26.2679 28.9715 26.2679 28.8491C26.2679 28.7267 26.2927 28.6056 26.3407 28.493C26.3887 28.3805 26.459 28.2787 26.5473 28.194C26.6356 28.1093 26.7401 28.0433 26.8546 28C26.9691 27.9567 27.0911 27.937 27.2134 27.9421V27.9421ZM26.6712 33.621C26.5518 33.6208 26.4336 33.5971 26.3233 33.5512C26.2131 33.5053 26.1129 33.4381 26.0286 33.3535C25.9443 33.269 25.8775 33.1686 25.832 33.0582C25.7865 32.9478 25.7632 32.8295 25.7634 32.7101C25.7636 32.5906 25.7873 32.4724 25.8332 32.3622C25.8791 32.2519 25.9463 32.1518 26.0309 32.0675C26.1154 31.9832 26.2158 31.9164 26.3262 31.8709C26.4366 31.8254 26.5549 31.802 26.6743 31.8022C26.9155 31.8027 27.1467 31.8989 27.3169 32.0697C27.4872 32.2405 27.5826 32.472 27.5822 32.7132C27.5817 32.9544 27.4855 33.1855 27.3147 33.3558C27.1439 33.526 26.9124 33.6214 26.6712 33.621V33.621ZM28.6118 37.5319C28.2508 37.5017 27.9165 37.3294 27.6824 37.0528C27.4483 36.7762 27.3336 36.418 27.3634 36.0569C27.3958 35.6971 27.5692 35.3647 27.8459 35.1324C28.1226 34.9001 28.48 34.7867 28.84 34.8171C29.5876 34.8812 30.1447 35.5421 30.0775 36.2882C30.0631 36.4661 30.0137 36.6395 29.9322 36.7983C29.8507 36.9571 29.7387 37.0983 29.6026 37.2138C29.4664 37.3293 29.3088 37.4167 29.1388 37.4712C28.9688 37.5256 28.7897 37.546 28.6118 37.5312V37.5319ZM29.9212 32.0843C29.5607 32.0843 29.2149 31.9411 28.96 31.6861C28.7051 31.4312 28.5618 31.0854 28.5618 30.7249C28.5618 30.3644 28.7051 30.0186 28.96 29.7637C29.2149 29.5087 29.5607 29.3655 29.9212 29.3655C30.6673 29.3655 31.2751 29.9733 31.2751 30.7241C31.2751 31.4749 30.6673 32.0843 29.9212 32.0843ZM31.8532 34.9351C31.3486 34.9351 30.9392 34.5304 30.9392 34.0249C30.9489 33.7898 31.0492 33.5676 31.2189 33.4047C31.3887 33.2419 31.6149 33.1509 31.8501 33.1509C32.0854 33.1509 32.3116 33.2419 32.4813 33.4047C32.6511 33.5676 32.7513 33.7898 32.7611 34.0249C32.7611 34.5296 32.3556 34.9351 31.8532 34.9351ZM33.8845 29.653H33.5665V28.0304L33.8806 28.0272C34.855 28.024 35.7888 27.636 36.4786 26.9478C37.1685 26.2595 37.5586 25.3267 37.5642 24.3522C37.5588 23.378 37.169 22.4453 36.4794 21.7571C35.7898 21.0688 34.8564 20.6807 33.8822 20.6772L33.5665 20.6757V19.0546H33.8845C36.8103 19.0546 39.1884 21.4296 39.1884 24.3522C39.1884 27.2749 36.8103 29.6538 33.8845 29.6538V29.653Z" fill="#1D5A74"/>
</svg>
