<svg width="51" height="50" viewBox="0 0 51 50" fill="none" xmlns="http://www.w3.org/2000/svg">
<path d="M31.474 4.77073C31.8725 4.42942 32.3852 4.25108 32.9095 4.27133C33.4338 4.29158 33.9312 4.50894 34.3022 4.87997C34.6732 5.251 34.8906 5.74837 34.9109 6.2727C34.9311 6.79703 34.7528 7.30968 34.4115 7.70823L27.8698 14.1457L29.4531 16.1249L33.4948 26.5416C33.7007 27.0908 33.7433 27.6878 33.6176 28.2608C33.492 28.8337 33.2033 29.3581 32.7865 29.7707L26.349 36.2082C25.7505 36.7692 24.9609 37.0814 24.1406 37.0814C23.3203 37.0814 22.5308 36.7692 21.9323 36.2082L12.349 26.6249C12.0765 26.3519 11.8622 26.0266 11.719 25.6686C11.5758 25.3105 11.5066 24.9271 11.5156 24.5416L10.474 11.1249H12.7031C12.9927 11.1147 13.2812 11.165 13.5503 11.2726C13.8193 11.3802 14.063 11.5428 14.2656 11.7499L14.5573 12.1041L16.7448 19.3541M16.7448 45.8332L4.95312 34.0832L9.36979 29.6666L21.1615 41.4582M41.4115 9.37489C41.4115 9.37489 36.2031 15.1249 36.2031 18.7499C36.2031 20.1312 36.7519 21.456 37.7286 22.4327C38.7054 23.4095 40.0301 23.9582 41.4115 23.9582C42.7928 23.9582 44.1176 23.4095 45.0943 22.4327C46.0711 21.456 46.6198 20.1312 46.6198 18.7499C46.6198 15.1249 41.4115 9.37489 41.4115 9.37489Z" fill="#1D5A74"/>
</svg>
