<svg width="51" height="50" viewBox="0 0 51 50" fill="none" xmlns="http://www.w3.org/2000/svg">
<path fill-rule="evenodd" clip-rule="evenodd" d="M39.7793 15.625C40.3949 15.625 41.0044 15.5038 41.5731 15.2682C42.1418 15.0326 42.6586 14.6873 43.0939 14.2521C43.5291 13.8168 43.8744 13.3 44.11 12.7313C44.3456 12.1626 44.4668 11.5531 44.4668 10.9375C44.4668 10.3219 44.3456 9.71238 44.11 9.14367C43.8744 8.57496 43.5291 8.05821 43.0939 7.62294C42.6586 7.18766 42.1418 6.84238 41.5731 6.60681C41.0044 6.37125 40.3949 6.25 39.7793 6.25C38.5361 6.25 37.3438 6.74386 36.4647 7.62294C35.5857 8.50201 35.0918 9.6943 35.0918 10.9375C35.0918 12.1807 35.5857 13.373 36.4647 14.2521C37.3438 15.1311 38.5361 15.625 39.7793 15.625ZM31.1897 24.2469C31.2105 23.9531 31.2355 23.6323 31.2647 23.2937C30.6533 23.7052 30.2126 24.0177 29.8168 24.3521C29.2366 24.8438 28.7595 25.3865 28.0897 26.5031L27.7741 27.0281C28.5999 27.6817 29.4595 28.2915 30.3491 28.8552L30.4012 28.8865L30.4126 28.8948C30.8146 29.1424 31.1206 29.5193 31.2803 29.9635L35.2335 40.9615C35.3293 41.2196 35.373 41.4943 35.362 41.7694C35.351 42.0446 35.2856 42.3149 35.1695 42.5646C35.0534 42.8143 34.8889 43.0385 34.6856 43.2243C34.4823 43.4101 34.2442 43.5537 33.985 43.6468C33.7259 43.74 33.4508 43.7809 33.1758 43.767C32.9007 43.7532 32.6311 43.685 32.3826 43.5663C32.1341 43.4477 31.9116 43.2809 31.7279 43.0757C31.5443 42.8705 31.4031 42.6309 31.3126 42.3708L27.598 32.0375C27.4303 31.926 27.2335 31.7937 27.0178 31.6448C26.1427 31.0447 25.2979 30.4016 24.4866 29.7177C23.6095 28.9719 22.647 28.0448 21.9887 27.0573C21.4126 26.1927 20.5741 24.5104 21.547 22.824C24.3855 17.9073 27.4095 15.5938 30.0158 14.6896C31.3033 14.2438 32.4512 14.1562 33.3543 14.2552C33.796 14.3042 34.2241 14.401 34.6001 14.5562C34.7783 14.6292 35.0241 14.7469 35.2668 14.9354C35.3866 15.0281 35.5658 15.1854 35.7314 15.4167C35.8876 15.6375 36.1335 16.0698 36.1335 16.6667C36.1335 16.8469 36.1022 17.151 36.0803 17.349L36.0762 17.3854C36.047 17.6646 36.0053 18.0385 35.9574 18.4687L35.9366 18.6562C35.8428 19.4896 35.7283 20.5156 35.621 21.5385C35.5049 22.6243 35.4076 23.7119 35.3293 24.801L35.8918 25.15H35.8939L35.8949 25.151C36.5439 25.5521 37.523 26.1573 38.9397 27.0427C39.1717 27.1877 39.3729 27.377 39.5317 27.5997C39.6906 27.8225 39.804 28.0743 39.8655 28.3409C39.9271 28.6075 39.9355 28.8836 39.8903 29.1534C39.8451 29.4232 39.7472 29.6815 39.6022 29.9135C39.4572 30.1455 39.2679 30.3467 39.0452 30.5056C38.8224 30.6644 38.5706 30.7778 38.304 30.8394C38.0374 30.9009 37.7613 30.9093 37.4915 30.8641C37.2217 30.8189 36.9634 30.721 36.7314 30.576C35.7419 29.9571 34.7506 29.3412 33.7574 28.7281H33.7564L33.0022 28.2604C32.4376 27.9083 32.1418 27.7188 31.8001 27.3781C31.5319 27.1077 31.3387 26.772 31.2397 26.4042L31.2376 26.3979C31.2014 26.2612 31.176 26.1219 31.1616 25.9812C31.1433 25.7988 31.135 25.6156 31.1366 25.4323C31.1376 25.099 31.1595 24.6844 31.1897 24.2469ZM14.7793 43.75H23.6335C23.6335 42.3125 23.1126 38.5417 14.7793 38.5417C10.4647 38.5417 6.9668 39.7083 6.9668 41.1458C6.9668 42.5833 10.4647 43.75 14.7793 43.75ZM19.6116 30.2562C19.7347 30.3159 19.8449 30.3992 19.9358 30.5014C20.0267 30.6036 20.0966 30.7227 20.1415 30.852C20.1864 30.9812 20.2054 31.118 20.1974 31.2546C20.1894 31.3911 20.1546 31.5248 20.0949 31.6479L17.8001 36.3906C17.6753 36.6315 17.4615 36.8141 17.2042 36.8998C16.9468 36.9854 16.6662 36.9673 16.4219 36.8493C16.1777 36.7312 15.9892 36.5226 15.8964 36.2677C15.8036 36.0128 15.8139 35.7318 15.9251 35.4844L18.2199 30.7406C18.3402 30.4921 18.5542 30.3014 18.815 30.2106C19.0757 30.1198 19.3619 30.1362 19.6105 30.2562H19.6116ZM23.5303 34.8271C23.6447 34.5789 23.657 34.2957 23.5645 34.0386C23.472 33.7814 23.2822 33.5709 23.0359 33.4525C22.7897 33.334 22.5067 33.317 22.2481 33.4052C21.9894 33.4934 21.7758 33.6797 21.6533 33.924L20.3783 36.574C20.319 36.6973 20.2845 36.8311 20.2769 36.9677C20.2693 37.1043 20.2887 37.2411 20.334 37.3702C20.3793 37.4994 20.4495 37.6183 20.5408 37.7203C20.632 37.8223 20.7424 37.9053 20.8658 37.9646C20.9891 38.0239 21.1229 38.0583 21.2595 38.0659C21.3961 38.0735 21.5329 38.0541 21.662 38.0088C21.7912 37.9636 21.9101 37.8933 22.0121 37.8021C22.1141 37.7108 22.1971 37.6004 22.2564 37.4771L23.5303 34.8271Z" fill="#1D5A74"/>
</svg>
