<svg width="60" height="60" viewBox="0 0 60 60" fill="none" xmlns="http://www.w3.org/2000/svg">
<path d="M46.6667 60H13.3333C5.98167 60 0 54.0183 0 46.6667V13.3333C0 5.98167 5.98167 0 13.3333 0H46.6667C54.0183 0 60 5.98167 60 13.3333V46.6667C60 54.0183 54.0183 60 46.6667 60Z" fill="#1E88E5"/>
<path d="M49.8767 19.1465L39.0233 29.9998L49.875 40.8515C49.9483 40.5782 50 40.2965 50 39.9998V19.9998C50 19.7032 49.9483 19.4215 49.8767 19.1465ZM34.48 29.8315L47.52 16.7898C47.245 16.7182 46.9633 16.6665 46.6667 16.6665H13.3333C13.0367 16.6665 12.755 16.7182 12.48 16.7898L25.52 29.8315C27.9917 32.2998 32.0083 32.2998 34.48 29.8315ZM30 35.0148C27.6 35.0148 25.2117 34.1115 23.35 32.3398L12.48 43.2098C12.755 43.2815 13.0367 43.3332 13.3333 43.3332H46.6667C46.9633 43.3332 47.245 43.2815 47.52 43.2098L36.65 32.3398C34.7883 34.1115 32.4 35.0148 30 35.0148ZM10.1233 19.1465C10.0517 19.4215 10 19.7032 10 19.9998V39.9998C10 40.2965 10.0517 40.5782 10.1233 40.8532L20.9767 29.9998L10.1233 19.1465Z" fill="white"/>
</svg>
