<svg width="25" height="24" viewBox="0 0 25 24" fill="none" xmlns="http://www.w3.org/2000/svg">
<path d="M6.25 3C4.74011 3 3.5 4.24011 3.5 5.75V18.25C3.5 19.7599 4.74011 21 6.25 21H18.75C20.2599 21 21.5 19.7599 21.5 18.25V5.75C21.5 4.24011 20.2599 3 18.75 3H6.25ZM6.25 4.5H18.75C19.4491 4.5 20 5.05089 20 5.75V18.25C20 18.9491 19.4491 19.5 18.75 19.5H15.5V14.5H17.3125C17.5645 14.5 17.7776 14.3115 17.8086 14.0615L17.9961 12.5615C18.0141 12.4195 17.969 12.2769 17.874 12.1689C17.7795 12.0614 17.6435 12 17.5 12H15.5V10.25C15.5 9.6985 15.9485 9.25 16.5 9.25H17.5C17.776 9.25 18 9.0265 18 8.75V7.0625C18 6.8035 17.8024 6.58745 17.5449 6.56445C17.5154 6.56195 16.81 6.5 15.917 6.5C13.7135 6.5 12.5 7.80809 12.5 10.1836V12H10.5C10.224 12 10 12.2235 10 12.5V14C10 14.2765 10.224 14.5 10.5 14.5H12.5V19.5H6.25C5.55089 19.5 5 18.9491 5 18.25V5.75C5 5.05089 5.55089 4.5 6.25 4.5Z" fill="black"/>
</svg>
