<svg width="51" height="50" viewBox="0 0 51 50" fill="none" xmlns="http://www.w3.org/2000/svg">
<path d="M43.8934 18.7501C41.6017 18.7501 39.7267 16.8751 39.7267 14.5834C39.7267 12.2918 43.8934 6.25009 43.8934 6.25009C43.8934 6.25009 48.0601 12.2918 48.0601 14.5834C48.0601 16.8751 46.1851 18.7501 43.8934 18.7501ZM36.6017 14.5834C36.6017 13.0626 37.4559 11.0209 38.5184 9.04175C34.7746 5.89009 30.0372 4.16336 25.1434 4.16675C13.6226 4.16675 4.31006 13.5418 4.31006 25.0001C4.31006 36.4584 13.6226 45.8334 25.1434 45.8334C36.6017 45.8334 45.9767 36.4584 45.9767 25.0001C45.9767 23.8543 45.8517 22.7293 45.6851 21.6251C45.1005 21.7825 44.4987 21.8664 43.8934 21.8751C39.8726 21.8751 36.6017 18.6043 36.6017 14.5834ZM32.6851 15.3751L34.8934 17.5834L32.6851 19.7918L34.8934 22.0001L32.6851 24.2084L28.2684 19.7918L32.6851 15.3751ZM15.3934 17.5834L17.6017 15.3751L22.0184 19.7918L17.6017 24.2084L15.3934 22.0001L17.6017 19.7918L15.3934 17.5834ZM32.3101 35.4168C30.8726 32.9376 28.2059 31.2501 25.1434 31.2501C22.0809 31.2501 19.4142 32.9376 17.9767 35.4168H14.4767C15.1017 33.8334 16.0601 32.4376 17.2684 31.2501L11.0601 27.7084C10.1226 28.2501 8.95589 28.2918 7.95589 27.7084C7.25071 27.2874 6.73945 26.606 6.53255 25.8112C6.32566 25.0164 6.43974 24.1721 6.85015 23.4607C7.26056 22.7493 7.93435 22.228 8.72597 22.0092C9.51758 21.7905 10.3635 21.892 11.0809 22.2918C12.0809 22.9168 12.6434 23.9584 12.6434 25.0001L20.0809 29.2918C21.6017 28.5418 23.3101 28.1251 25.1434 28.1251C29.9976 28.1251 34.1434 31.1459 35.8101 35.4168H32.3101Z" fill="#1D5A74"/>
</svg>
