<svg width="20" height="20" viewBox="0 0 20 20" fill="none" xmlns="http://www.w3.org/2000/svg">
<path d="M2.99835 0.385203C2.73701 0.286373 2.45165 0.245863 2.16793 0.267303C1.8842 0.288753 1.61105 0.371483 1.37303 0.508053C1.13502 0.644633 0.939631 0.830763 0.804452 1.04969C0.669273 1.26861 0.598541 1.51347 0.598633 1.7622V19.0002C0.598633 19.2654 0.71926 19.5197 0.933964 19.7073C1.14868 19.8948 1.43988 20.0002 1.74354 20.0002C2.04719 20.0002 2.33839 19.8948 2.55311 19.7073C2.76781 19.5197 2.88844 19.2654 2.88844 19.0002V14.6572L18.1603 8.87724C19.5399 8.35424 19.5399 6.6462 18.1603 6.1242L2.99835 0.385203Z" fill="#ED2D2D" fill-opacity="0.89"/>
</svg>
