<svg width="24" height="24" viewBox="0 0 24 24" fill="none" xmlns="http://www.w3.org/2000/svg">
<path d="M6.096 2.38496C5.86774 2.28613 5.61849 2.24562 5.37068 2.26706C5.12286 2.28851 4.88428 2.37124 4.67639 2.50781C4.4685 2.64439 4.29784 2.83052 4.17977 3.04945C4.0617 3.26837 3.99992 3.51323 4 3.76196V21C4 21.2652 4.10536 21.5195 4.29289 21.7071C4.48043 21.8946 4.73478 22 5 22C5.26522 22 5.51957 21.8946 5.70711 21.7071C5.89464 21.5195 6 21.2652 6 21V16.657L19.339 10.877C20.544 10.354 20.544 8.64596 19.339 8.12396L6.096 2.38496Z" fill="#ED2D2D" fill-opacity="0.89"/>
</svg>
