<svg width="49" height="49" viewBox="0 0 49 49" fill="none" xmlns="http://www.w3.org/2000/svg">
<circle cx="24.5" cy="24.5" r="24.5" fill="#FF0000"/>
<path d="M25.8631 25.8631C25.0462 26.6794 24.0668 27.0833 22.8958 27.0833C21.7249 27.0833 20.7456 26.6794 19.9287 25.8632C19.9286 25.8632 19.9285 25.8631 19.9284 25.863L25.8631 25.8631ZM25.8631 25.8631C26.6794 25.0462 27.0833 24.0668 27.0833 22.8958C27.0833 21.7248 26.6793 20.7454 25.863 19.9284L25.8631 25.8631ZM28.0547 17.7372L28.0545 17.737C26.6475 16.3307 24.9177 15.625 22.8958 15.625C20.874 15.625 19.1445 16.3307 17.7381 17.7371C16.3311 19.1441 15.625 20.8739 15.625 22.8958C15.625 24.9177 16.3311 26.6476 17.7381 28.0546C19.1445 29.461 20.874 30.1667 22.8958 30.1667C23.7137 30.1667 24.4917 30.0364 25.2262 29.7727C25.8017 29.5661 26.3289 29.2993 26.8056 28.971L32.3339 34.4994C32.6278 34.7933 33.0025 34.9323 33.4167 34.9323C33.8309 34.9323 34.2055 34.7933 34.4994 34.4994C34.7952 34.2036 34.9583 33.8357 34.9583 33.4167C34.9583 33.0105 34.8131 32.6477 34.5254 32.36L28.971 26.8056C29.2993 26.3289 29.5661 25.8017 29.7727 25.2262C30.0364 24.4917 30.1667 23.7137 30.1667 22.8958C30.1667 20.874 29.461 19.1442 28.0547 17.7372Z" fill="white" stroke="white"/>
</svg>
