<svg width="60" height="60" viewBox="0 0 60 60" fill="none" xmlns="http://www.w3.org/2000/svg">
<path d="M46.6667 60H13.3333C5.98167 60 0 54.0183 0 46.6667V13.3333C0 5.98167 5.98167 0 13.3333 0H46.6667C54.0183 0 60 5.98167 60 13.3333V46.6667C60 54.0183 54.0183 60 46.6667 60Z" fill="#1E88E5"/>
<path d="M49.8767 19.1466L39.0233 30L49.875 40.8516C49.9483 40.5783 50 40.2966 50 40V20C50 19.7033 49.9483 19.4216 49.8767 19.1466ZM34.48 29.8316L47.52 16.79C47.245 16.7183 46.9633 16.6666 46.6667 16.6666H13.3333C13.0367 16.6666 12.755 16.7183 12.48 16.79L25.52 29.8316C27.9917 32.3 32.0083 32.3 34.48 29.8316ZM30 35.015C27.6 35.015 25.2117 34.1116 23.35 32.34L12.48 43.21C12.755 43.2816 13.0367 43.3333 13.3333 43.3333H46.6667C46.9633 43.3333 47.245 43.2816 47.52 43.21L36.65 32.34C34.7883 34.1116 32.4 35.015 30 35.015ZM10.1233 19.1466C10.0517 19.4216 10 19.7033 10 20V40C10 40.2966 10.0517 40.5783 10.1233 40.8533L20.9767 30L10.1233 19.1466Z" fill="white"/>
</svg>
