<svg width="60" height="60" viewBox="0 0 60 60" fill="none" xmlns="http://www.w3.org/2000/svg">
<path d="M30 0C22.0435 0 14.4129 3.1607 8.7868 8.78679C3.16071 14.4129 0 22.0435 0 30C0 37.9565 3.16071 45.5871 8.7868 51.2132C14.4129 56.8393 22.0435 60 30 60C37.9565 60 45.5871 56.8393 51.2132 51.2132C56.8393 45.5871 60 37.9565 60 30C60 22.0435 56.8393 14.4129 51.2132 8.78679C45.5871 3.1607 37.9565 0 30 0Z" fill="#039BE5"/>
<path d="M34.0611 37.9516H41.8248L43.0438 30.0647H34.0596V25.7542C34.0596 22.4779 35.1301 19.5726 38.1948 19.5726H43.1196V12.69C42.2543 12.5732 40.4243 12.3174 36.9664 12.3174C29.7459 12.3174 25.5127 16.1305 25.5127 24.8179V30.0647H18.0901V37.9516H25.5127V59.6289C26.9827 59.85 28.4717 60 30.0001 60C31.3817 60 32.7301 59.8737 34.0611 59.6937V37.9516Z" fill="white"/>
</svg>
