<svg width="15" height="15" viewBox="0 0 15 15" fill="none" xmlns="http://www.w3.org/2000/svg">
<path d="M6.93034 12.149L6.92962 12.1484C5.31041 10.6801 4.00672 9.49514 3.10198 8.38826C2.20273 7.28809 1.75 6.32625 1.75 5.3125C1.75 3.65799 3.03805 2.375 4.6875 2.375C5.62385 2.375 6.53081 2.81348 7.12058 3.50064L7.5 3.94271L7.87942 3.50064C8.46919 2.81348 9.37615 2.375 10.3125 2.375C11.962 2.375 13.25 3.65799 13.25 5.3125C13.25 6.32625 12.7973 7.28809 11.898 8.38826C10.9933 9.49514 9.68959 10.6801 8.07038 12.1484L8.06966 12.149L7.5 12.6676L6.93034 12.149Z" fill="#FF0000" stroke="#FF0000"/>
</svg>
