<svg width="16" height="16" viewBox="0 0 16 16" fill="none" xmlns="http://www.w3.org/2000/svg">
<path d="M6.93571 12.4784L6.93499 12.4777C5.31579 11.0094 4.01209 9.82449 3.10735 8.7176C2.2081 7.61744 1.75537 6.65559 1.75537 5.64185C1.75537 3.98733 3.04342 2.70435 4.69287 2.70435C5.62922 2.70435 6.53618 3.14282 7.12595 3.82999L7.50537 4.27206L7.88479 3.82999C8.47456 3.14282 9.38152 2.70435 10.3179 2.70435C11.9673 2.70435 13.2554 3.98733 13.2554 5.64185C13.2554 6.65559 12.8026 7.61744 11.9034 8.7176C10.9987 9.82449 9.69496 11.0094 8.07575 12.4777L8.07503 12.4784L7.50537 12.9969L6.93571 12.4784Z" fill="white" stroke="#FF0000"/>
</svg>
