<svg width="60" height="60" viewBox="0 0 60 60" fill="none" xmlns="http://www.w3.org/2000/svg">
<path d="M53.4328 41.6999C52.139 44.5734 51.5156 45.8578 49.8515 48.3937C47.5219 51.9374 44.2359 56.3624 40.1765 56.3906C36.5625 56.4234 35.6297 54.0328 30.7219 54.0749C25.8187 54.0984 24.7969 56.4374 21.1781 56.3999C17.1141 56.3624 14.0062 52.3781 11.6766 48.839C5.16093 38.9156 4.47186 27.2812 8.49843 21.0937C11.3484 16.7062 15.8531 14.1281 20.0859 14.1281C24.3984 14.1281 27.1078 16.4953 30.6703 16.4953C34.1297 16.4953 36.2344 14.1234 41.2219 14.1234C44.9906 14.1234 48.975 16.1765 51.825 19.7203C42.5062 24.8296 44.0203 38.1374 53.4328 41.6999ZM37.4344 10.1625C39.2484 7.83276 40.6266 4.54683 40.125 1.19995C37.1672 1.40151 33.7078 3.29058 31.6875 5.73745C29.8547 7.9687 28.3359 11.2781 28.9266 14.4796C32.1562 14.5828 35.4984 12.6562 37.4344 10.1625Z" fill="black"/>
</svg>
