<svg width="25" height="24" viewBox="0 0 25 24" fill="none" xmlns="http://www.w3.org/2000/svg">
<path d="M8.74988 2.5C5.58307 2.5 2.99988 5.0832 2.99988 8.25V15.75C2.99988 18.9164 5.58298 21.5 8.74988 21.5H16.2499C19.4163 21.5 21.9999 18.9165 21.9999 15.75V8.25C21.9999 5.0831 19.4163 2.5 16.2499 2.5H8.74988ZM8.74988 4H16.2499C18.6055 4 20.4999 5.8939 20.4999 8.25V15.75C20.4999 18.1055 18.6054 20 16.2499 20H8.74988C6.39377 20 4.49988 18.1056 4.49988 15.75V8.25C4.49988 5.89381 6.39368 4 8.74988 4ZM17.4999 6C16.9474 6 16.4999 6.4475 16.4999 7C16.4999 7.5525 16.9474 8 17.4999 8C18.0524 8 18.4999 7.5525 18.4999 7C18.4999 6.4475 18.0524 6 17.4999 6ZM12.4999 7C9.74747 7 7.49988 9.24759 7.49988 12C7.49988 14.7524 9.74747 17 12.4999 17C15.2523 17 17.4999 14.7524 17.4999 12C17.4999 9.24759 15.2523 7 12.4999 7ZM12.4999 8.5C14.4415 8.5 15.9999 10.0584 15.9999 12C15.9999 13.9416 14.4415 15.5 12.4999 15.5C10.5583 15.5 8.99988 13.9416 8.99988 12C8.99988 10.0584 10.5583 8.5 12.4999 8.5Z" fill="black"/>
</svg>
