<svg width="38" height="50" viewBox="0 0 38 50" fill="none" xmlns="http://www.w3.org/2000/svg">
<path d="M18.9284 12.5208C15.4659 12.5208 12.6542 9.7333 12.6542 6.29658C12.6542 2.86064 15.4659 0.074707 18.9284 0.074707C22.3917 0.074707 25.2019 2.86064 25.2019 6.29658C25.2019 9.7333 22.3917 12.5208 18.9284 12.5208ZM35.9105 41.5333C34.5058 41.9364 33.0691 41.2294 32.7003 39.9419L27.8972 23.1739L25.555 23.1708L33.2308 49.9255H4.62765L12.305 23.1708L9.9589 23.1739L5.15734 39.9419C4.7878 41.2294 3.3503 41.9364 1.94874 41.5333C0.543273 41.1302 -0.344227 39.9028 0.127648 38.295L5.06749 21.0903C7.04093 14.2146 12.7972 14.4294 12.7972 14.4294H25.0636C25.0636 14.4294 30.8183 14.2146 32.7941 21.0903L37.7323 38.295C38.205 39.9028 37.3167 41.1302 35.912 41.5333H35.9105ZM18.9308 29.788C13.8066 29.788 9.65421 33.9372 9.65421 39.0622C9.65421 44.1833 13.8066 48.3372 18.9308 48.3372C24.0495 48.3372 28.2027 44.1841 28.2027 39.0622C28.2027 33.9372 24.0511 29.788 18.9308 29.788ZM20.9237 36.8044C20.6589 36.6796 20.4212 36.5037 20.2245 36.2868C20.0277 36.07 19.8757 35.8164 19.7771 35.5407C19.6786 35.2649 19.6354 34.9725 19.6501 34.68C19.6648 34.3876 19.7371 34.1009 19.8628 33.8364C20.1163 33.3032 20.571 32.8922 21.1272 32.6939C21.6834 32.4956 22.2955 32.5261 22.8292 32.7786C23.3631 33.0323 23.7745 33.4875 23.973 34.0443C24.1715 34.6011 24.1409 35.2139 23.8878 35.7481C23.6347 36.2813 23.1801 36.6921 22.6241 36.8902C22.0681 37.0883 21.4562 37.0574 20.923 36.8044H20.9237ZM22.9995 39.9083C22.78 40.3747 21.6066 42.8474 21.3683 43.3442C21.0508 44.0121 20.4815 44.5268 19.7851 44.7754C19.0887 45.0241 18.3221 44.9865 17.6534 44.6708C17.2019 44.4536 16.8558 44.12 16.5651 43.7536C16.1245 43.1974 15.8292 41.713 15.8292 41.713C15.3667 42.0396 14.1831 42.7856 13.6933 43.1333C13.4788 43.283 13.2138 43.3417 12.9561 43.2966C12.6985 43.2515 12.4692 43.1063 12.3183 42.8927C12.2434 42.787 12.1902 42.6676 12.1615 42.5413C12.1329 42.415 12.1294 42.2843 12.1513 42.1566C12.1732 42.029 12.2201 41.9069 12.2892 41.7974C12.3584 41.6879 12.4484 41.5931 12.5542 41.5185C13.2589 41.0255 15.2128 39.6974 15.2128 39.6974C15.3536 39.5974 15.5127 39.5263 15.6811 39.4881C15.8495 39.4499 16.0237 39.4454 16.1939 39.4748C16.364 39.5042 16.5266 39.5669 16.6724 39.6594C16.8182 39.7519 16.9442 39.8724 17.0433 40.0138L17.873 41.6989L19.1917 39.0333L18.0394 38.6958C17.9144 38.6594 17.7982 38.598 17.6976 38.5155C17.597 38.4329 17.5142 38.3308 17.4542 38.2153L16.3237 36.0442C16.2058 35.8183 16.1825 35.5548 16.2589 35.3116C16.3354 35.0685 16.5052 34.8657 16.7312 34.7478C16.9571 34.6299 17.2206 34.6065 17.4638 34.683C17.7069 34.7594 17.9098 34.9292 18.0276 35.1552L18.9691 36.9661C19.5901 37.1481 22.1159 37.8825 22.1159 37.8825C22.2526 37.9255 22.3675 38.0028 22.4714 38.0927C22.7653 38.279 22.9811 38.5662 23.0782 38.9004C23.1753 39.2346 23.1471 39.5927 22.9987 39.9075L22.9995 39.9083Z" fill="#1D5A74"/>
</svg>
