<svg width="25" height="24" viewBox="0 0 25 24" fill="none" xmlns="http://www.w3.org/2000/svg">
<path d="M6.25 3C4.74011 3 3.5 4.24011 3.5 5.75V18.25C3.5 19.7599 4.74011 21 6.25 21H18.75C20.2599 21 21.5 19.7599 21.5 18.25V5.75C21.5 4.24011 20.2599 3 18.75 3H6.25ZM6.25 4.5H18.75C19.4491 4.5 20 5.05089 20 5.75V18.25C20 18.9491 19.4491 19.5 18.75 19.5H6.25C5.55089 19.5 5 18.9491 5 18.25V5.75C5 5.05089 5.55089 4.5 6.25 4.5ZM8.25 6.5C7.91848 6.5 7.60054 6.6317 7.36612 6.86612C7.1317 7.10054 7 7.41848 7 7.75C7 8.08152 7.1317 8.39946 7.36612 8.63388C7.60054 8.8683 7.91848 9 8.25 9C8.58152 9 8.89946 8.8683 9.13388 8.63388C9.3683 8.39946 9.5 8.08152 9.5 7.75C9.5 7.41848 9.3683 7.10054 9.13388 6.86612C8.89946 6.6317 8.58152 6.5 8.25 6.5ZM7.5 10C7.2235 10 7 10.2235 7 10.5V17C7 17.2765 7.2235 17.5 7.5 17.5H9C9.2765 17.5 9.5 17.2765 9.5 17V10.5C9.5 10.2235 9.2765 10 9 10H7.5ZM11 10C10.7235 10 10.5 10.2235 10.5 10.5V17C10.5 17.2765 10.7235 17.5 11 17.5H12.5C12.7765 17.5 13 17.2765 13 17V13.25C13 12.5605 13.5605 12 14.25 12C14.9395 12 15.5 12.5605 15.5 13.25V17C15.5 17.2765 15.7235 17.5 16 17.5H17.5C17.7765 17.5 18 17.2765 18 17V13C18 11.3455 16.6545 10 15 10C14.231 10 13.5315 10.293 13 10.7705V10.5C13 10.2235 12.7765 10 12.5 10H11Z" fill="black"/>
</svg>
