<svg width="50" height="50" viewBox="0 0 50 50" fill="none" xmlns="http://www.w3.org/2000/svg">
<path d="M25.0002 25.0001C26.146 25.0001 27.1272 24.5917 27.9439 23.7751C28.7592 22.9598 29.1668 21.9792 29.1668 20.8334C29.1668 19.6876 28.7592 18.7063 27.9439 17.8897C27.1272 17.0744 26.146 16.6667 25.0002 16.6667C23.8543 16.6667 22.8738 17.0744 22.0585 17.8897C21.2418 18.7063 20.8335 19.6876 20.8335 20.8334C20.8335 21.9792 21.2418 22.9598 22.0585 23.7751C22.8738 24.5917 23.8543 25.0001 25.0002 25.0001ZM25.0002 45.0522C24.7224 45.0522 24.4446 45.0001 24.1668 44.8959C23.8891 44.7917 23.646 44.6529 23.4377 44.4792C18.3682 40.0001 14.5835 35.8424 12.0835 32.0063C9.5835 28.1688 8.3335 24.5834 8.3335 21.2501C8.3335 16.0417 10.0092 11.8924 13.3606 8.80216C16.7106 5.71189 20.5904 4.16675 25.0002 4.16675C29.4099 4.16675 33.2897 5.71189 36.6397 8.80216C39.9911 11.8924 41.6668 16.0417 41.6668 21.2501C41.6668 24.5834 40.4168 28.1688 37.9168 32.0063C35.4168 35.8424 31.6321 40.0001 26.5627 44.4792C26.3543 44.6529 26.1113 44.7917 25.8335 44.8959C25.5557 45.0001 25.2779 45.0522 25.0002 45.0522Z" fill="#676767"/>
</svg>
