<svg width="17" height="20" viewBox="0 0 17 20" fill="none" xmlns="http://www.w3.org/2000/svg">
<path d="M8.00537 10.3291C8.55537 10.3291 9.02637 10.1331 9.41837 9.7411C9.81037 9.3491 10.006 8.87844 10.0054 8.3291C10.0054 7.7791 9.80937 7.3081 9.41737 6.9161C9.02537 6.5241 8.5547 6.32843 8.00537 6.3291C7.45537 6.3291 6.98437 6.5251 6.59237 6.9171C6.20037 7.3091 6.0047 7.77977 6.00537 8.3291C6.00537 8.8791 6.20137 9.3501 6.59337 9.7421C6.98537 10.1341 7.45604 10.3298 8.00537 10.3291ZM8.00537 19.9541C7.87204 19.9541 7.7387 19.9291 7.60537 19.8791C7.47204 19.8291 7.35537 19.7624 7.25537 19.6791C4.82204 17.5291 3.00537 15.5331 1.80537 13.6911C0.605371 11.8491 0.00537109 10.1284 0.00537109 8.5291C0.00537109 6.0291 0.809705 4.03743 2.41837 2.5541C4.02704 1.07077 5.88937 0.329102 8.00537 0.329102C10.122 0.329102 11.9847 1.07077 13.5934 2.5541C15.202 4.03743 16.006 6.0291 16.0054 8.5291C16.0054 10.1291 15.4054 11.8501 14.2054 13.6921C13.0054 15.5341 11.1887 17.5298 8.75537 19.6791C8.65537 19.7624 8.5387 19.8291 8.40537 19.8791C8.27204 19.9291 8.1387 19.9541 8.00537 19.9541Z" fill="black"/>
</svg>
