<svg width="75" height="80" viewBox="0 0 75 80" fill="none" xmlns="http://www.w3.org/2000/svg">
<ellipse cx="37.3398" cy="39.7814" rx="37.3398" ry="39.7814" fill="white"/>
<path d="M47.0166 63.0004H48.7909C48.7909 63.0004 48.7909 62.4004 48.7909 61.2004L47.0166 63.0004Z" fill="#5E9BB5"/>
<path d="M30.4562 56.699C28.3862 54.599 27.4991 51.2991 28.0905 48.2992C28.6819 45.2993 30.4562 42.8993 33.1177 41.9993C33.1177 41.6993 32.822 41.3994 32.822 41.3994C32.822 39.5994 35.1877 40.1994 36.962 36.8995C36.962 36.8995 44.9465 15 28.3862 15C12.1217 15 20.1061 36.8995 20.1061 36.8995C21.8804 39.8994 24.2462 39.2994 24.2462 41.3994C24.2462 43.4993 22.1761 43.4993 20.1061 43.7993C16.8532 44.0993 13.896 43.4993 10.9388 48.8992C9.1645 52.1991 8.27734 62.9988 8.27734 62.9988H36.6663L30.4562 56.699Z" fill="#5E9BB5"/>
<path d="M49.0869 45.2997C48.4954 44.9998 47.6083 44.9998 47.0168 44.9998C44.9468 44.9998 43.1725 46.7997 41.9896 48.2997C40.8067 46.7997 39.0324 44.9998 36.9624 44.9998C36.0752 44.9998 35.4838 44.9998 34.8924 45.2997C31.3437 46.4997 30.7523 51.2996 33.4138 53.9995L42.2853 62.6993L51.1569 53.9995C53.5226 51.2996 52.6355 46.4997 49.0869 45.2997Z" fill="#5E9BB5"/>
</svg>
