<svg width="75" height="80" viewBox="0 0 75 80" fill="none" xmlns="http://www.w3.org/2000/svg">
<ellipse cx="37.3398" cy="40" rx="37.3398" ry="40" fill="white"/>
<path d="M39.2669 50.224C46.4117 51.592 51.4745 55.096 51.4745 59.2V64H13.6216V59.2C13.6216 55.096 18.6844 51.592 25.8291 50.224L32.548 61.6L39.2669 50.224ZM23.0848 30.4H42.0113V35.2C42.0113 37.7461 41.0142 40.1879 39.2395 41.9882C37.4648 43.7886 35.0578 44.8 32.548 44.8C30.0382 44.8 27.6312 43.7886 25.8565 41.9882C24.0818 40.1879 23.0848 37.7461 23.0848 35.2V30.4ZM23.0848 28L24.0548 18.16C24.1731 16.936 25.1904 16 26.4206 16H38.6991C39.9057 16 40.923 16.936 41.0413 18.16L42.0113 28H23.0848ZM32.548 18.4H30.1822V20.8H27.8164V23.2H30.1822V25.6H32.548V23.2H34.9138V20.8H32.548V18.4Z" fill="#5E9BB5"/>
</svg>
