<svg width="51" height="50" viewBox="0 0 51 50" fill="none" xmlns="http://www.w3.org/2000/svg">
<path d="M27.7297 0.61084C19.3735 0.61084 11.6672 6.88662 10.0657 13.7983C9.71019 15.3343 9.30862 19.3483 9.30862 19.3483L5.47112 29.0366C5.39326 29.219 5.3544 29.4157 5.35706 29.614C5.35706 30.4319 6.018 31.0968 6.83909 31.0968H9.30862V36.2436C9.30862 40.2593 12.5563 43.5108 16.5664 43.5108H19.4524V49.1483H30.1766V46.6327H34.5446V49.1483H39.1055V33.5163C43.3914 30.146 46.1469 24.9077 46.1469 19.0343C46.1469 8.85772 37.9055 0.611621 27.7305 0.611621L27.7297 0.61084ZM13.8399 23.0187C13.2913 23.0187 12.7653 22.8008 12.3773 22.413C11.9894 22.0252 11.7713 21.4992 11.7711 20.9507C11.7724 20.403 11.9909 19.8781 12.3788 19.4914C12.7667 19.1047 13.2922 18.8878 13.8399 18.8882C14.3807 18.8987 14.8957 19.1209 15.2745 19.5071C15.6532 19.8932 15.8653 20.4125 15.8653 20.9534C15.8653 21.4943 15.6532 22.0136 15.2745 22.3998C14.8957 22.7859 14.3807 23.0081 13.8399 23.0187V23.0187ZM30.1758 36.5499H34.5438V38.9124H30.1758V36.5499ZM30.1758 33.1882H34.5438V35.5491H30.1758V33.1882ZM30.1758 39.9085H34.5438V42.2741H30.1758V39.9085ZM30.1758 43.2702H34.5438V45.6358H30.1758V43.2702ZM30.1758 29.828H34.5703C34.5617 30.0015 34.543 30.1718 34.543 30.3491V32.1905H30.175L30.1758 29.828ZM42.2672 16.2124C42.2672 17.4702 41.7742 18.6116 40.9735 19.4616C40.9059 20.3242 40.6038 21.152 40.1 21.8554C39.5962 22.5589 38.9098 23.1113 38.1149 23.453V23.4694C36.1797 24.596 35.0227 26.5194 34.6711 28.8265H32.8821V23.4741C32.8938 21.8054 33.4188 20.7374 34.5188 20.078C34.9083 19.8578 35.2706 19.5927 35.5985 19.2882C36.4464 19.5904 37.1561 20.1896 37.5961 20.9749C37.641 21.0508 37.7047 21.1138 37.7811 21.1579C37.8574 21.202 37.9439 21.2256 38.0321 21.2265C38.1177 21.2268 38.2019 21.2042 38.2758 21.1608C38.3338 21.1294 38.3849 21.0868 38.4261 21.0354C38.4674 20.984 38.498 20.9249 38.5162 20.8616C38.5344 20.7982 38.5398 20.7319 38.532 20.6664C38.5243 20.601 38.5036 20.5377 38.4711 20.4804H38.4672C37.9701 19.5995 37.2041 18.9009 36.2813 18.4866C36.7375 17.7858 36.9907 16.9515 36.9789 15.9483C36.9789 15.9429 36.9852 15.9382 36.9852 15.9312C36.9846 15.4886 36.9215 15.0483 36.7977 14.6233C37.8152 14.431 38.7425 13.913 39.4399 13.1476C39.4847 13.0991 39.5194 13.0423 39.5419 12.9803C39.5645 12.9183 39.5746 12.8525 39.5714 12.7866C39.5683 12.7207 39.5521 12.6561 39.5237 12.5966C39.4954 12.537 39.4555 12.4837 39.4063 12.4397C39.3088 12.351 39.1802 12.3045 39.0485 12.3105C38.9168 12.3165 38.7929 12.3745 38.7039 12.4718C38.105 13.1294 37.2934 13.5549 36.4117 13.6733C36.0467 12.9943 35.5224 12.414 34.8838 11.9821C34.2453 11.5502 33.5114 11.2797 32.7453 11.1937C32.8467 10.3617 33.2238 9.58775 33.8164 8.99522C33.9085 8.90106 33.9601 8.77458 33.9601 8.64287C33.9601 8.51116 33.9085 8.38469 33.8164 8.29053C33.7221 8.19635 33.5943 8.14346 33.461 8.14346C33.3277 8.14346 33.1998 8.19635 33.1055 8.29053C32.342 9.05534 31.8612 10.057 31.7422 11.1312C30.8308 11.0163 29.9926 10.5729 29.3847 9.88406C28.7769 9.19526 28.4412 8.30838 28.4407 7.38975C28.4403 7.25806 28.3883 7.13177 28.2958 7.03799C28.2033 6.94422 28.0778 6.89043 27.9461 6.88818C27.88 6.88788 27.8145 6.90062 27.7533 6.92567C27.6922 6.95073 27.6366 6.98762 27.5897 7.03421C27.5428 7.08081 27.5056 7.1362 27.4801 7.19721C27.4547 7.25822 27.4415 7.32365 27.4414 7.38975C27.4414 7.71553 27.4727 8.0249 27.5352 8.33037C27.0292 8.76904 26.4153 9.06458 25.7568 9.18641C25.0983 9.30824 24.4193 9.25194 23.7899 9.02334L23.7782 9.02021C23.2613 8.8333 22.7922 8.53421 22.4047 8.14443C22.3106 8.05102 22.1834 7.9986 22.0508 7.9986C21.9182 7.9986 21.791 8.05102 21.6969 8.14443C21.6501 8.19058 21.613 8.24556 21.5877 8.30618C21.5623 8.3668 21.5493 8.43185 21.5493 8.49756C21.5493 8.56326 21.5623 8.62831 21.5877 8.68893C21.613 8.74955 21.6501 8.80453 21.6969 8.85068C22.0944 9.2485 22.5587 9.57325 23.0688 9.81006C22.9696 11.0562 22.2453 12.1272 21.2328 12.7288C20.6314 11.81 19.7321 11.1262 18.686 10.7921C18.5585 10.7516 18.4203 10.7631 18.3012 10.8239C18.1822 10.8848 18.0919 10.9901 18.05 11.1171C18.0117 11.2435 18.0245 11.3799 18.0857 11.4969C18.147 11.614 18.2517 11.7023 18.3774 11.7429C19.146 11.9869 19.8164 12.4703 20.2907 13.1226C19.9736 13.2083 19.6465 13.2516 19.318 13.2515H19.2578C18.0167 13.25 16.8243 13.7339 15.9352 14.5999C15.8869 14.6449 15.8482 14.6992 15.8215 14.7596C15.7948 14.82 15.7806 14.8852 15.7798 14.9512C15.779 15.0172 15.7916 15.0827 15.8168 15.1437C15.8421 15.2047 15.8794 15.26 15.9266 15.3062C15.9717 15.353 16.0257 15.3905 16.0854 15.4164C16.1452 15.4423 16.2094 15.4561 16.2745 15.4571C16.3396 15.458 16.4042 15.4461 16.4646 15.4219C16.525 15.3977 16.5801 15.3619 16.6266 15.3163C17.3306 14.6302 18.2757 14.2479 19.2586 14.2515H19.3196C20.471 14.251 21.5833 13.8339 22.4512 13.0773C23.3191 12.3207 23.8839 11.2756 24.0414 10.1351C24.6986 10.2805 25.3792 10.2854 26.0384 10.1492C26.6976 10.0131 27.3206 9.73912 27.8664 9.34522C28.1739 10.0349 28.6422 10.6409 29.2321 11.1124C28.6529 11.8234 28.2934 12.6878 28.1977 13.5999C27.1669 13.4289 26.1085 13.6039 25.1875 14.0976C25.0703 14.1599 24.9825 14.2663 24.9436 14.3933C24.9046 14.5202 24.9176 14.6575 24.9797 14.7749C25.0237 14.8546 25.0882 14.921 25.1665 14.9673C25.2448 15.0136 25.3341 15.0381 25.425 15.0382C25.5071 15.0382 25.5813 15.0202 25.6532 14.978C26.1975 14.6891 26.8041 14.5371 27.4203 14.5351C27.6852 14.5351 27.9469 14.564 28.1969 14.6171C28.3063 15.6296 28.7438 16.621 29.4961 17.4085C29.5424 17.4571 29.598 17.4957 29.6597 17.5222C29.7213 17.5486 29.7876 17.5623 29.8547 17.5624C29.9843 17.5621 30.1089 17.513 30.2039 17.4249C30.2522 17.3801 30.291 17.326 30.318 17.2659C30.345 17.2058 30.3597 17.1409 30.3611 17.0751C30.3626 17.0092 30.3508 16.9437 30.3265 16.8825C30.3022 16.8213 30.2658 16.7656 30.2196 16.7187H30.2157C29.5682 16.0384 29.1955 15.1426 29.1696 14.2038C29.1696 14.1905 29.1735 14.1804 29.1696 14.1655V14.1108C29.1696 13.228 29.4742 12.3562 30.0782 11.6554C30.7409 11.9866 31.4716 12.1589 32.2125 12.1585H32.2203C33.2171 12.161 34.1723 12.5577 34.8776 13.262C35.5828 13.9664 35.9807 14.9212 35.9844 15.9179C35.5877 15.813 35.1791 15.76 34.7688 15.7601C34.1735 15.7601 33.5703 15.8687 32.9883 16.1093C32.9276 16.1337 32.8723 16.1699 32.8255 16.2158C32.7788 16.2616 32.7415 16.3162 32.7158 16.3765C32.6902 16.4367 32.6767 16.5015 32.676 16.5669C32.6754 16.6324 32.6877 16.6974 32.7121 16.7581C32.7366 16.8188 32.7728 16.8742 32.8187 16.9209C32.8645 16.9677 32.9191 17.0049 32.9794 17.0306C33.0396 17.0562 33.1043 17.0697 33.1698 17.0704C33.2353 17.071 33.3002 17.0587 33.361 17.0343C33.8086 16.8532 34.2867 16.7594 34.7696 16.7577C35.1469 16.7577 35.5203 16.8147 35.8711 16.9241C35.762 17.4526 35.508 17.9404 35.1375 18.3327C35.1078 18.3581 35.0817 18.3876 35.0602 18.4202C34.7428 18.7252 34.3906 18.9919 34.011 19.2147C32.5641 20.0601 31.8703 21.5929 31.8844 23.471V28.8233H30.1782V23.7343C30.1782 21.8647 29.0063 20.0921 27.5305 19.4616C26.8266 19.1882 26.0922 18.7304 25.5571 18.1319C24.7726 18.6679 23.8447 18.9549 22.8946 18.9554C21.9459 18.9571 21.0186 18.6732 20.2336 18.1405C19.4497 18.6548 18.5322 18.928 17.5946 18.9265C16.9585 18.9266 16.3287 18.8013 15.7411 18.5579C15.1534 18.3145 14.6195 17.9577 14.1698 17.5079C13.7202 17.0581 13.3635 16.524 13.1203 15.9363C12.8771 15.3486 12.7521 14.7188 12.7524 14.0827C12.7516 13.1341 13.0298 12.2063 13.5524 11.4146C14.075 10.6229 14.8189 10.0025 15.6914 9.63037C15.9224 8.57384 16.5076 7.62801 17.3499 6.94977C18.1923 6.27153 19.2412 5.90164 20.3227 5.90146C20.4438 5.90146 20.5547 5.91162 20.6664 5.91865C21.3264 4.95176 22.32 4.26253 23.4569 3.98312C24.5937 3.70371 25.7936 3.8538 26.8266 4.40459C27.7124 3.8167 28.7704 3.54438 29.8299 3.63155C30.8894 3.71872 31.8887 4.16031 32.6664 4.88506C33.0285 4.79625 33.3999 4.75062 33.7727 4.74912C35.6922 4.74912 37.3524 5.90459 38.0938 7.55928C39.2738 7.91657 40.2682 8.71929 40.8665 9.79732C41.4647 10.8754 41.6196 12.144 41.2985 13.3343C41.9288 14.1605 42.2702 15.1709 42.2703 16.2101L42.2672 16.2124Z" fill="#1D5A74"/>
</svg>
