<svg width="44" height="95" viewBox="0 0 44 95" fill="none" xmlns="http://www.w3.org/2000/svg">
<rect width="44" height="40" rx="10" fill="white"/>
<path d="M22 15C16.5 15 12 17.2 12 20C12 22.2 14.9 24.1 19 24.8V28L23 24L19 20V22.7C15.8 22.1 14 20.8 14 20C14 18.9 17 17 22 17C27 17 30 18.9 30 20C30 20.7 28.5 21.9 26 22.5V24.6C29.5 23.8 32 22.1 32 20C32 17.2 27.5 15 22 15Z" fill="black"/>
<rect y="55" width="44" height="40" rx="10" fill="white"/>
<path d="M14 73.5C13.17 73.5 12.5 74.17 12.5 75C12.5 75.83 13.17 76.5 14 76.5C14.83 76.5 15.5 75.83 15.5 75C15.5 74.17 14.83 73.5 14 73.5ZM14 67.5C13.17 67.5 12.5 68.17 12.5 69C12.5 69.83 13.17 70.5 14 70.5C14.83 70.5 15.5 69.83 15.5 69C15.5 68.17 14.83 67.5 14 67.5ZM14 79.5C13.17 79.5 12.5 80.18 12.5 81C12.5 81.82 13.18 82.5 14 82.5C14.82 82.5 15.5 81.82 15.5 81C15.5 80.18 14.83 79.5 14 79.5ZM17 82H31V80H17V82ZM17 76H31V74H17V76ZM17 68V70H31V68H17Z" fill="black"/>
</svg>
