<svg width="35" height="35" viewBox="0 0 35 35" fill="none" xmlns="http://www.w3.org/2000/svg">
<path d="M31.1679 33.8559L20.4159 23.1039C19.4559 23.8719 18.3519 24.4799 17.1039 24.9279C15.8559 25.3759 14.5279 25.5999 13.1199 25.5999C9.63189 25.5999 6.68021 24.3922 4.26485 21.9769C1.84821 19.5602 0.639893 16.6079 0.639893 13.1199C0.639893 9.63189 1.84821 6.67957 4.26485 4.26293C6.68021 1.84757 9.63189 0.639893 13.1199 0.639893C16.6079 0.639893 19.5602 1.84757 21.9769 4.26293C24.3922 6.67957 25.5999 9.63189 25.5999 13.1199C25.5999 14.5279 25.3759 15.8559 24.9279 17.1039C24.4799 18.3519 23.8719 19.4559 23.1039 20.4159L33.9039 31.2159C34.2559 31.5679 34.4319 31.9999 34.4319 32.5119C34.4319 33.0239 34.2399 33.4719 33.8559 33.8559C33.5039 34.2079 33.0559 34.3839 32.5119 34.3839C31.9679 34.3839 31.5199 34.2079 31.1679 33.8559ZM13.1199 21.7599C15.5199 21.7599 17.5602 20.9202 19.2409 19.2409C20.9202 17.5602 21.7599 15.5199 21.7599 13.1199C21.7599 10.7199 20.9202 8.67957 19.2409 6.99893C17.5602 5.31957 15.5199 4.47989 13.1199 4.47989C10.7199 4.47989 8.67957 5.31957 6.99893 6.99893C5.31957 8.67957 4.47989 10.7199 4.47989 13.1199C4.47989 15.5199 5.31957 17.5602 6.99893 19.2409C8.67957 20.9202 10.7199 21.7599 13.1199 21.7599Z" fill="#676767"/>
</svg>
