<svg width="22" height="27" viewBox="0 0 22 27" fill="none" xmlns="http://www.w3.org/2000/svg">
<g filter="url(#filter0_dd_81_426)">
<path d="M15 11C15 13.4853 13.2091 15.5 11 15.5C8.79086 15.5 7 13.4853 7 11C7 8.51472 8.79086 3.5 11 3.5C13.2091 3.5 15 8.51472 15 11Z" fill="white"/>
<path d="M11 16C13.539 16 15.5 13.7044 15.5 11C15.5 9.6685 15.0288 7.72154 14.2822 6.10805C13.9075 5.29834 13.4497 4.5419 12.9212 3.97988C12.3982 3.42362 11.7493 3 11 3C10.2507 3 9.60177 3.42362 9.07875 3.97988C8.55031 4.5419 8.09247 5.29834 7.7178 6.10805C6.9712 7.72154 6.5 9.6685 6.5 11C6.5 13.7044 8.46098 16 11 16Z" stroke="#D1D5DB"/>
</g>
<circle cx="11" cy="11.5" r="2" fill="#D1D5DB"/>
<defs>
<filter id="filter0_dd_81_426" x="0" y="0.5" width="22" height="26" filterUnits="userSpaceOnUse" color-interpolation-filters="sRGB">
<feFlood flood-opacity="0" result="BackgroundImageFix"/>
<feColorMatrix in="SourceAlpha" type="matrix" values="0 0 0 0 0 0 0 0 0 0 0 0 0 0 0 0 0 0 127 0" result="hardAlpha"/>
<feOffset dy="4"/>
<feGaussianBlur stdDeviation="3"/>
<feColorMatrix type="matrix" values="0 0 0 0 0 0 0 0 0 0 0 0 0 0 0 0 0 0 0.1 0"/>
<feBlend mode="normal" in2="BackgroundImageFix" result="effect1_dropShadow_81_426"/>
<feColorMatrix in="SourceAlpha" type="matrix" values="0 0 0 0 0 0 0 0 0 0 0 0 0 0 0 0 0 0 127 0" result="hardAlpha"/>
<feOffset dy="2"/>
<feGaussianBlur stdDeviation="2"/>
<feColorMatrix type="matrix" values="0 0 0 0 0 0 0 0 0 0 0 0 0 0 0 0 0 0 0.06 0"/>
<feBlend mode="normal" in2="effect1_dropShadow_81_426" result="effect2_dropShadow_81_426"/>
<feBlend mode="normal" in="SourceGraphic" in2="effect2_dropShadow_81_426" result="shape"/>
</filter>
</defs>
</svg>
