<svg width="51" height="50" viewBox="0 0 51 50" fill="none" xmlns="http://www.w3.org/2000/svg">
<path d="M15.8776 2.12305C15.6916 2.46909 15.3732 2.78038 14.959 3.02127C14.5449 3.26215 14.0516 3.42289 13.5358 3.48506C12.9826 3.55126 12.4285 3.5011 11.9462 3.34113C11.4638 3.18116 11.0757 2.91885 10.8327 2.58857C10.712 3.1374 10.6654 3.76201 10.7191 4.45869C11.0362 8.57061 9.72696 16.041 21.2211 17.3755C17.1732 20.5306 18.4877 23.6982 19.4177 26.8733C16.1661 26.7142 14.1823 29.1292 13.3066 31.3638C3.78614 30.0722 5.5208 43.2468 5.6334 45.8309C5.73946 48.2625 10.7519 48.5975 10.9347 46.4549C11.2928 42.2584 9.93438 36.2723 13.7869 37.2623C15.9627 37.8213 19.8653 42.4817 29.5453 42.2796C43.2199 41.9938 55.2753 10.8968 37.518 7.97568C31.3363 6.95889 23.0463 11.6108 23.0463 11.6108C16.4733 12.2307 16.475 9.22275 16.1189 3.58623C16.084 3.03408 16.0001 2.54736 15.8776 2.12305ZM14.3666 34.1969H39.2011C37.5495 36.9678 34.1015 40.6988 28.0133 40.6098C22.3404 40.5268 17.902 38.792 14.3666 34.1969Z" fill="#1D5A74"/>
</svg>
