<svg width="51" height="50" viewBox="0 0 51 50" fill="none" xmlns="http://www.w3.org/2000/svg">
<path d="M3.32117 3.36256C3.30082 3.32583 3.28795 3.28542 3.2833 3.24369C3.27865 3.20195 3.28231 3.1597 3.29408 3.11939C3.30585 3.07908 3.32548 3.04149 3.35186 3.00881C3.37823 2.97613 3.41081 2.94899 3.44773 2.92897L5.76804 1.66491C5.80481 1.64463 5.84524 1.63186 5.88699 1.62734C5.92873 1.62281 5.97096 1.62662 6.01122 1.63853C6.05148 1.65045 6.08898 1.67025 6.12153 1.69677C6.15408 1.72329 6.18105 1.75601 6.20086 1.79303L7.13133 3.49069C10.6493 2.436 14.547 3.936 16.3774 7.28835L11.8813 9.74303C12.2384 10.3979 12.3208 11.1678 12.1102 11.8834C11.8997 12.5989 11.4135 13.2015 10.7587 13.5587C10.1038 13.9158 9.33392 13.9981 8.61835 13.7876C7.90278 13.577 7.30015 13.0909 6.94304 12.436L2.44539 14.8876C0.613357 11.5368 1.45476 7.44772 4.25008 5.061L3.32117 3.36178V3.36256ZM34.9985 33.9423H50.1305V49.5844H34.9985V33.9423V33.9423ZM33.2641 41.7602H21.043C20.0188 41.76 19.0366 41.3533 18.3121 40.6293C17.5876 39.9054 17.18 38.9235 17.179 37.8993C17.1796 36.875 17.587 35.8929 18.3117 35.169C19.0363 34.4451 20.0188 34.0387 21.043 34.0391H33.2641V41.7602ZM6.91492 44.8923C6.91492 44.029 7.61414 43.3282 8.4782 43.3282H33.2634V49.5829H6.91492V44.8915V44.8923ZM16.3134 37.0993C16.3121 38.3363 15.8197 39.5221 14.9443 40.3962C14.069 41.2702 12.8824 41.7608 11.6454 41.7602C11.0328 41.7607 10.4261 41.6406 9.85993 41.4066C9.29377 41.1727 8.77923 40.8295 8.3457 40.3967C7.91217 39.9639 7.56813 39.4499 7.33322 38.8841C7.09832 38.3184 6.97715 37.7119 6.97664 37.0993C6.97664 34.5266 9.06648 32.4407 11.6454 32.4407C14.2227 32.4407 16.3134 34.5266 16.3134 37.0993ZM41.829 24.0469L39.2032 16.5712C38.6938 15.1618 37.7157 14.0618 34.9548 14.0618H22.8329C20.0727 14.0618 19.093 15.1618 18.586 16.5712L15.961 24.0469C15.7649 24.5298 15.6634 25.6149 16.7313 26.3415L22.904 30.4087C23.3368 30.6941 23.8652 30.7962 24.3732 30.6926C24.8812 30.5891 25.3275 30.2883 25.6141 29.8563C25.7555 29.6419 25.8533 29.4016 25.9018 29.1494C25.9503 28.8972 25.9486 28.6378 25.8969 28.3862C25.8452 28.1346 25.7444 27.8957 25.6003 27.683C25.4562 27.4704 25.2716 27.2882 25.0571 27.1469L20.1579 23.918L21.5368 20.1141H23.4454L22.3274 23.2001L26.0469 25.6516C26.4587 25.9212 26.8128 26.27 27.0886 26.6775C27.3645 27.0851 27.5567 27.5434 27.654 28.0258C27.755 28.5081 27.7592 29.0056 27.6664 29.4895C27.5736 29.9733 27.3856 30.434 27.1134 30.8446C26.8951 31.1701 26.6273 31.4596 26.3196 31.7024H31.4696C31.1625 31.4587 30.8945 31.1695 30.6751 30.8446C30.4029 30.4339 30.2149 29.9733 30.1218 29.4895C30.0288 29.0057 30.0325 28.5082 30.1329 28.0258C30.2308 27.5435 30.4233 27.0854 30.6993 26.6779C30.9753 26.2704 31.3292 25.9216 31.7407 25.6516L35.4626 23.2001L34.3399 20.1141H36.2501L37.6321 23.918L32.7305 27.1469C31.8298 27.7407 31.5782 28.9571 32.1743 29.8563C32.7704 30.7555 33.9845 31.004 34.8852 30.4087L41.0571 26.3415C42.1259 25.6141 42.0251 24.5298 41.8298 24.0469H41.829ZM30.1001 6.74538C29.9526 7.06553 29.7164 7.33672 29.4195 7.52682C29.1227 7.71692 28.7776 7.81798 28.4251 7.81803C28.072 7.81816 27.7263 7.71721 27.4288 7.52713C27.1313 7.33706 26.8944 7.06578 26.7462 6.74538H23.3649C23.3102 7.04225 23.2782 7.34616 23.2782 7.65944C23.2792 9.02835 23.8239 10.3408 24.7925 11.3082C25.761 12.2756 27.0741 12.8187 28.443 12.818C29.121 12.8185 29.7923 12.6855 30.4188 12.4265C31.0453 12.1676 31.6147 11.7877 32.0944 11.3087C32.574 10.8297 32.9547 10.2608 33.2145 9.63469C33.4743 9.00854 33.6083 8.33735 33.6087 7.65944C33.6087 7.34538 33.5751 7.04225 33.5227 6.74538H30.1009H30.1001ZM26.6321 5.52741C26.7329 5.12827 26.964 4.77417 27.2888 4.52116C27.6135 4.26815 28.0134 4.13068 28.4251 4.13053C29.2891 4.13053 30.018 4.72741 30.2149 5.52741H33.1446C32.7345 4.62463 32.0731 3.85903 31.2395 3.32205C30.4059 2.78508 29.4354 2.49945 28.4438 2.49928C27.4523 2.49964 26.4818 2.78535 25.6483 3.3223C24.8147 3.85925 24.1533 4.62475 23.743 5.52741H26.6329H26.6321Z" fill="#1D5A74"/>
</svg>
