<svg width="51" height="50" viewBox="0 0 51 50" fill="none" xmlns="http://www.w3.org/2000/svg">
<path d="M23.583 43.7499V45.8333C23.583 46.4235 23.3837 46.918 22.9851 47.3166C22.5851 47.7166 22.09 47.9166 21.4997 47.9166C20.9094 47.9166 20.415 47.7166 20.0163 47.3166C19.6163 46.918 19.4163 46.4235 19.4163 45.8333V43.6978C18.5483 43.5242 17.8018 43.1339 17.1768 42.527C16.5518 41.9187 16.1525 41.1631 15.9788 40.2603L15.3018 36.0937C15.0934 34.8089 15.4059 33.6805 16.2393 32.7083C17.0726 31.736 18.1316 31.2499 19.4163 31.2499V28.802C19.0691 28.9409 18.7302 29.036 18.3997 29.0874C18.0705 29.1402 17.715 29.1666 17.333 29.1666C13.8608 29.1666 10.9094 27.9513 8.47884 25.5208C6.04829 23.0902 4.83301 20.1388 4.83301 16.6666V14.5833C4.83301 11.111 6.04829 8.15964 8.47884 5.72909C10.9094 3.29853 13.8608 2.08325 17.333 2.08325C19.0691 2.08325 20.5448 2.69089 21.7601 3.90617C22.9754 5.12145 23.583 6.59714 23.583 8.33325C23.583 10.0694 22.9754 11.5451 21.7601 12.7603C20.5448 13.9756 19.0691 14.5833 17.333 14.5833H15.2497C14.6594 14.5833 14.1643 14.3839 13.7643 13.9853C13.3656 13.5853 13.1663 13.0902 13.1663 12.4999C13.1663 11.9096 13.3656 11.4145 13.7643 11.0145C14.1643 10.6159 14.6594 10.4166 15.2497 10.4166H17.333C17.9233 10.4166 18.4184 10.2166 18.8184 9.81658C19.217 9.41797 19.4163 8.92353 19.4163 8.33325C19.4163 7.74297 19.217 7.24783 18.8184 6.84783C18.4184 6.44922 17.9233 6.24992 17.333 6.24992C15.0413 6.24992 13.0795 7.06589 11.4476 8.69784C9.81565 10.3298 8.99967 12.2916 8.99967 14.5833V16.6666C8.99967 18.9583 9.81565 20.9201 11.4476 22.552C13.0795 24.1839 15.0413 24.9999 17.333 24.9999C17.9233 24.9999 18.4184 24.7999 18.8184 24.3999C19.217 24.0013 19.4163 23.5069 19.4163 22.9166C19.4163 22.3263 19.217 21.8312 18.8184 21.4312C18.4184 21.0326 17.9233 20.8333 17.333 20.8333H15.2497C14.6594 20.8333 14.1643 20.6333 13.7643 20.2333C13.3656 19.8346 13.1663 19.3402 13.1663 18.7499C13.1663 18.1596 13.3656 17.6645 13.7643 17.2645C14.1643 16.8659 14.6594 16.6666 15.2497 16.6666H17.333C19.0691 16.6666 20.5448 17.2742 21.7601 18.4895C22.9754 19.7048 23.583 21.1805 23.583 22.9166V31.2499H27.7497V22.9166C27.7497 21.1805 28.3573 19.7048 29.5726 18.4895C30.7879 17.2742 32.2636 16.6666 33.9997 16.6666H36.083C36.6733 16.6666 37.1677 16.8659 37.5663 17.2645C37.9663 17.6645 38.1663 18.1596 38.1663 18.7499C38.1663 19.3402 37.9663 19.8346 37.5663 20.2333C37.1677 20.6333 36.6733 20.8333 36.083 20.8333H33.9997C33.4094 20.8333 32.915 21.0326 32.5163 21.4312C32.1163 21.8312 31.9163 22.3263 31.9163 22.9166C31.9163 23.5069 32.1163 24.0013 32.5163 24.3999C32.915 24.7999 33.4094 24.9999 33.9997 24.9999C36.2913 24.9999 38.2532 24.1839 39.8851 22.552C41.517 20.9201 42.333 18.9583 42.333 16.6666V14.5833C42.333 12.2916 41.517 10.3298 39.8851 8.69784C38.2532 7.06589 36.2913 6.24992 33.9997 6.24992C33.4094 6.24992 32.915 6.44922 32.5163 6.84783C32.1163 7.24783 31.9163 7.74297 31.9163 8.33325C31.9163 8.92353 32.1163 9.41797 32.5163 9.81658C32.915 10.2166 33.4094 10.4166 33.9997 10.4166H36.083C36.6733 10.4166 37.1677 10.6159 37.5663 11.0145C37.9663 11.4145 38.1663 11.9096 38.1663 12.4999C38.1663 13.0902 37.9663 13.5853 37.5663 13.9853C37.1677 14.3839 36.6733 14.5833 36.083 14.5833H33.9997C32.2636 14.5833 30.7879 13.9756 29.5726 12.7603C28.3573 11.5451 27.7497 10.0694 27.7497 8.33325C27.7497 6.59714 28.3573 5.12145 29.5726 3.90617C30.7879 2.69089 32.2636 2.08325 33.9997 2.08325C37.4719 2.08325 40.4233 3.29853 42.8538 5.72909C45.2844 8.15964 46.4997 11.111 46.4997 14.5833V16.6666C46.4997 20.1388 45.2844 23.0902 42.8538 25.5208C40.4233 27.9513 37.4719 29.1666 33.9997 29.1666C33.6177 29.1666 33.2622 29.1402 32.933 29.0874C32.6025 29.036 32.2636 28.9409 31.9163 28.802V31.2499C33.2011 31.2499 34.2601 31.736 35.0934 32.7083C35.9268 33.6805 36.2393 34.8089 36.0309 36.0937L35.3538 40.2603C35.1802 41.1631 34.7809 41.9187 34.1559 42.527C33.5309 43.1339 32.7844 43.5242 31.9163 43.6978V45.8333C31.9163 46.4235 31.717 46.918 31.3184 47.3166C30.9184 47.7166 30.4233 47.9166 29.833 47.9166C29.2427 47.9166 28.7483 47.7166 28.3497 47.3166C27.9497 46.918 27.7497 46.4235 27.7497 45.8333V43.7499H23.583Z" fill="#1D5A74"/>
</svg>
