<svg width="25" height="24" viewBox="0 0 25 24" fill="none" xmlns="http://www.w3.org/2000/svg">
<path d="M16.5 3C13.7843 3 11.5804 5.19437 11.5215 7.89648C9.1204 7.6085 7.55683 6.71075 6.59769 5.82617C5.53403 4.84519 5.1973 3.97363 5.1973 3.97363C5.14815 3.84977 5.06688 3.74124 4.96185 3.65921C4.85683 3.57718 4.73186 3.52461 4.59978 3.5069C4.4677 3.4892 4.33328 3.507 4.21037 3.55848C4.08745 3.60996 3.98047 3.69326 3.90043 3.7998C3.90043 3.7998 3.00004 5 3.00004 6.75C3.00004 7.75049 3.31594 8.49078 3.69242 9.11816C3.67855 9.11167 3.585 9.0791 3.585 9.0791C3.46546 9.01942 3.33216 8.99275 3.19886 9.00185C3.06557 9.01094 2.93712 9.05548 2.8268 9.13085C2.71649 9.20622 2.6283 9.30969 2.57137 9.43056C2.51444 9.55142 2.49082 9.68531 2.50297 9.81836C2.50297 9.81836 2.79164 11.9284 4.77543 13.4707L4.5684 13.5225C4.45602 13.5505 4.35166 13.6042 4.26351 13.6794C4.17535 13.7545 4.1058 13.849 4.0603 13.9555C4.0148 14.0621 3.99458 14.1777 4.00124 14.2933C4.0079 14.409 4.04125 14.5215 4.09867 14.6221C4.09867 14.6221 4.43506 15.1911 5.13969 15.79C5.55746 16.1451 6.17117 16.5116 6.89457 16.8506C6.00617 17.1752 4.68145 17.5 2.75004 17.5C2.60591 17.5 2.46484 17.5415 2.34369 17.6196C2.22253 17.6976 2.12644 17.8089 2.06689 17.9402C2.00734 18.0714 1.98687 18.217 2.00792 18.3596C2.02897 18.5022 2.09065 18.6357 2.18558 18.7441C2.18558 18.7441 2.7587 19.3755 3.89164 19.9248C5.02458 20.4741 6.76978 21 9.25004 21C13.6099 21 16.7424 18.9086 18.6973 16.2578C20.6522 13.607 21.5 10.4306 21.5 8C21.5 7.84577 21.4904 7.69372 21.4766 7.54297C22.5322 6.5258 22.9284 5.76112 22.9473 5.72363C23.0423 5.53313 23.0069 5.30434 22.8594 5.15234C22.7124 4.99984 22.4846 4.9569 22.2911 5.0459L22.21 5.08301C22.1405 5.11501 22.071 5.14721 22.001 5.17871C22.2045 4.85421 22.3651 4.50744 22.4766 4.14844C22.5386 3.95044 22.4717 3.73347 22.3077 3.60547C22.1437 3.47747 21.9178 3.46377 21.7403 3.57227C21.1292 3.94368 20.5434 4.20369 19.9336 4.37793C19.0363 3.52674 17.8285 3 16.5 3ZM16.5 4.5C18.4416 4.5 20 6.05841 20 8C20 10.0694 19.2228 13.018 17.4903 15.3672C15.7577 17.7164 13.1402 19.5 9.25004 19.5C7.36744 19.5 6.11513 19.1595 5.1768 18.791C6.15971 18.6384 7.00601 18.4347 7.6143 18.1992C8.66913 17.7909 9.23832 17.3193 9.23832 17.3193C9.34272 17.2297 9.42047 17.1131 9.46305 16.9823C9.50564 16.8515 9.51142 16.7115 9.47976 16.5776C9.4481 16.4437 9.38022 16.3211 9.28356 16.2232C9.18689 16.1253 9.06516 16.0558 8.93168 16.0225C7.57032 15.6821 6.6972 15.1317 6.14945 14.6729L6.93168 14.4775C7.08637 14.4389 7.22474 14.352 7.3267 14.2295C7.42866 14.1069 7.48892 13.955 7.49871 13.7959C7.50851 13.6367 7.46734 13.4786 7.38118 13.3445C7.29503 13.2103 7.16836 13.1071 7.01957 13.0498C5.39701 12.4257 4.71565 11.5432 4.36723 10.8037C4.79122 10.8915 5.18599 11 5.75004 11C5.91894 10.9999 6.08286 10.9427 6.21524 10.8378C6.34763 10.7329 6.44074 10.5864 6.47949 10.422C6.51825 10.2576 6.50038 10.085 6.42879 9.93198C6.35719 9.779 6.23606 9.65467 6.085 9.5791C6.085 9.5791 4.50004 8.85 4.50004 6.75C4.50004 6.37297 4.60446 6.13418 4.6807 5.84863C4.94229 6.20018 5.15788 6.53929 5.58012 6.92871C6.86745 8.11598 8.99522 9.32658 12.21 9.49902C12.3117 9.50445 12.4135 9.4891 12.5091 9.45391C12.6047 9.41872 12.6921 9.36443 12.766 9.29434C12.84 9.22425 12.8988 9.13984 12.9391 9.04626C12.9793 8.95267 13 8.85187 13 8.75V8C13 6.05841 14.5585 4.5 16.5 4.5Z" fill="black"/>
</svg>
