<svg width="25" height="24" viewBox="0 0 25 24" fill="none" xmlns="http://www.w3.org/2000/svg">
<path d="M16.4999 3C13.7842 3 11.5802 5.19437 11.5214 7.89648C9.12028 7.6085 7.55671 6.71075 6.59757 5.82617C5.53391 4.84519 5.19718 3.97363 5.19718 3.97363C5.14802 3.84977 5.06675 3.74124 4.96173 3.65921C4.85671 3.57718 4.73173 3.52461 4.59965 3.5069C4.46757 3.4892 4.33316 3.507 4.21025 3.55848C4.08733 3.60996 3.98035 3.69326 3.90031 3.7998C3.90031 3.7998 2.99992 5 2.99992 6.75C2.99992 7.75049 3.31581 8.49078 3.6923 9.11816C3.67843 9.11167 3.58488 9.0791 3.58488 9.0791C3.46534 9.01942 3.33204 8.99275 3.19874 9.00185C3.06544 9.01094 2.937 9.05548 2.82668 9.13085C2.71636 9.20622 2.62818 9.30969 2.57125 9.43056C2.51432 9.55142 2.4907 9.68531 2.50285 9.81836C2.50285 9.81836 2.79152 11.9284 4.77531 13.4707L4.56828 13.5225C4.45589 13.5505 4.35154 13.6042 4.26338 13.6794C4.17523 13.7545 4.10568 13.849 4.06018 13.9555C4.01467 14.0621 3.99446 14.1777 4.00112 14.2933C4.00777 14.409 4.04112 14.5215 4.09855 14.6221C4.09855 14.6221 4.43494 15.1911 5.13956 15.79C5.55734 16.1451 6.17105 16.5116 6.89445 16.8506C6.00605 17.1752 4.68133 17.5 2.74992 17.5C2.60579 17.5 2.46472 17.5415 2.34356 17.6196C2.22241 17.6976 2.12631 17.8089 2.06677 17.9402C2.00722 18.0714 1.98675 18.217 2.0078 18.3596C2.02885 18.5022 2.09053 18.6357 2.18546 18.7441C2.18546 18.7441 2.75858 19.3755 3.89152 19.9248C5.02446 20.4741 6.76965 21 9.24992 21C13.6098 21 16.7422 18.9086 18.6972 16.2578C20.6521 13.607 21.4999 10.4306 21.4999 8C21.4999 7.84577 21.4903 7.69372 21.4765 7.54297C22.5321 6.5258 22.9282 5.76112 22.9472 5.72363C23.0422 5.53313 23.0068 5.30434 22.8593 5.15234C22.7123 4.99984 22.4844 4.9569 22.2909 5.0459L22.2099 5.08301C22.1404 5.11501 22.0709 5.14721 22.0009 5.17871C22.2044 4.85421 22.365 4.50744 22.4765 4.14844C22.5385 3.95044 22.4715 3.73347 22.3075 3.60547C22.1435 3.47747 21.9177 3.46377 21.7402 3.57227C21.129 3.94368 20.5432 4.20369 19.9335 4.37793C19.0362 3.52674 17.8284 3 16.4999 3ZM16.4999 4.5C18.4415 4.5 19.9999 6.05841 19.9999 8C19.9999 10.0694 19.2227 13.018 17.4902 15.3672C15.7576 17.7164 13.1401 19.5 9.24992 19.5C7.36732 19.5 6.11501 19.1595 5.17667 18.791C6.15959 18.6384 7.00589 18.4347 7.61417 18.1992C8.66901 17.7909 9.2382 17.3193 9.2382 17.3193C9.3426 17.2297 9.42035 17.1131 9.46293 16.9823C9.50551 16.8515 9.51129 16.7115 9.47964 16.5776C9.44798 16.4437 9.3801 16.3211 9.28343 16.2232C9.18677 16.1253 9.06504 16.0558 8.93156 16.0225C7.57019 15.6821 6.69708 15.1317 6.14933 14.6729L6.93156 14.4775C7.08625 14.4389 7.22462 14.352 7.32658 14.2295C7.42854 14.1069 7.48879 13.955 7.49859 13.7959C7.50839 13.6367 7.46722 13.4786 7.38106 13.3445C7.2949 13.2103 7.16824 13.1071 7.01945 13.0498C5.39689 12.4257 4.71553 11.5432 4.3671 10.8037C4.79109 10.8915 5.18586 11 5.74992 11C5.91882 10.9999 6.08274 10.9427 6.21512 10.8378C6.34751 10.7329 6.44061 10.5864 6.47937 10.422C6.51812 10.2576 6.50026 10.085 6.42866 9.93198C6.35707 9.779 6.23594 9.65467 6.08488 9.5791C6.08488 9.5791 4.49992 8.85 4.49992 6.75C4.49992 6.37297 4.60434 6.13418 4.68058 5.84863C4.94217 6.20018 5.15776 6.53929 5.57999 6.92871C6.86733 8.11598 8.9951 9.32658 12.2099 9.49902C12.3116 9.50445 12.4134 9.4891 12.509 9.45391C12.6046 9.41872 12.692 9.36443 12.7659 9.29434C12.8398 9.22425 12.8987 9.13984 12.9389 9.04626C12.9792 8.95267 12.9999 8.85187 12.9999 8.75V8C12.9999 6.05841 14.5583 4.5 16.4999 4.5Z" fill="black"/>
</svg>
