<svg width="31" height="32" viewBox="0 0 31 32" fill="none" xmlns="http://www.w3.org/2000/svg">
<path d="M15.4021 0.699951C6.96511 0.699951 0.102112 7.56295 0.102112 16C0.102112 24.437 6.96511 31.2999 15.4021 31.2999C23.8391 31.2999 30.7021 24.437 30.7021 16C30.7021 7.56295 23.8391 0.699951 15.4021 0.699951V0.699951ZM15.4021 28.7C11.3811 28.7 7.79711 26.8159 5.46911 23.8899C7.09072 21.7681 9.3528 20.2252 11.9201 19.49C10.9957 18.9028 10.2345 18.0917 9.70692 17.1321C9.17936 16.1724 8.90254 15.0951 8.90211 14C8.90211 10.416 11.8181 7.49995 15.4021 7.49995C18.9861 7.49995 21.9021 10.416 21.9021 14C21.9012 15.0952 21.6241 16.1726 21.0964 17.1324C20.5687 18.0922 19.8074 18.9034 18.8831 19.4909C21.4509 20.2257 23.7135 21.7687 25.3351 23.891C23.0071 26.816 19.4231 28.7 15.4021 28.7Z" fill="#717171"/>
</svg>
