<svg width="65" height="17" viewBox="0 0 65 17" fill="none" xmlns="http://www.w3.org/2000/svg">
<path d="M9.82985 6.99561L8.829 3.76895C8.63155 3.13561 7.71921 3.13561 7.52857 3.76895L6.52091 6.99561H3.49112C2.8307 6.99561 2.55836 7.82895 3.09623 8.20228L5.57453 9.93561L4.60091 13.0089C4.40346 13.6289 5.13878 14.1289 5.66304 13.7356L8.17538 11.8689L10.6877 13.7423C11.212 14.1356 11.9473 13.6356 11.7498 13.0156L10.7762 9.94228L13.2545 8.20895C13.7924 7.82895 13.5201 7.00228 12.8596 7.00228H9.82985V6.99561Z" fill="#FCB006"/>
<path d="M22.0852 6.99561L21.0844 3.76895C20.8869 3.13561 19.9746 3.13561 19.7839 3.76895L18.7763 6.99561H15.7465C15.0861 6.99561 14.8137 7.82895 15.3516 8.20228L17.8299 9.93561L16.8563 13.0089C16.6588 13.6289 17.3942 14.1289 17.9184 13.7356L20.4308 11.8689L22.9431 13.7423C23.4673 14.1356 24.2027 13.6356 24.0052 13.0156L23.0316 9.94228L25.5099 8.20895C26.0478 7.82895 25.7754 7.00228 25.115 7.00228H22.0852V6.99561Z" fill="#FCB006"/>
<path d="M33.6594 6.99561L32.6586 3.76895C32.4611 3.13561 31.5488 3.13561 31.3582 3.76895L30.3505 6.99561H27.3207C26.6603 6.99561 26.3879 7.82895 26.9258 8.20228L29.4041 9.93561L28.4305 13.0089C28.2331 13.6289 28.9684 14.1289 29.4926 13.7356L32.005 11.8689L34.5173 13.7423C35.0416 14.1356 35.7769 13.6356 35.5794 13.0156L34.6058 9.94228L37.0841 8.20895C37.622 7.82895 37.3496 7.00228 36.6892 7.00228H33.6594V6.99561Z" fill="#FCB006"/>
<path d="M45.2341 6.99561L44.2333 3.76895C44.0358 3.13561 43.1235 3.13561 42.9329 3.76895L41.9252 6.99561H38.8954C38.235 6.99561 37.9627 7.82895 38.5005 8.20228L40.9788 9.93561L40.0052 13.0089C39.8078 13.6289 40.5431 14.1289 41.0673 13.7356L43.5797 11.8689L46.092 13.7423C46.6163 14.1356 47.3516 13.6356 47.1541 13.0156L46.1805 9.94228L48.6588 8.20895C49.1967 7.82895 48.9244 7.00228 48.2639 7.00228H45.2341V6.99561Z" fill="#FCB006"/>
<path d="M57.4895 6.99561L56.4887 3.76895C56.2912 3.13561 55.3789 3.13561 55.1882 3.76895L54.1806 6.99561H51.1508C50.4904 6.99561 50.218 7.82895 50.7559 8.20228L53.2342 9.93561L52.2606 13.0089C52.0631 13.6289 52.7985 14.1289 53.3227 13.7356L55.835 11.8689L58.3474 13.7423C58.8716 14.1356 59.607 13.6356 59.4095 13.0156L58.4359 9.94228L60.9142 8.20895C61.4521 7.82895 61.1797 7.00228 60.5193 7.00228H57.4895V6.99561Z" fill="#A1A1A1"/>
</svg>
